<svg width="3696" height="2464" viewBox="0 0 3696 2464" fill="none" xmlns="http://www.w3.org/2000/svg">
<g clip-path="url(#clip0_510_3059)">
<mask id="mask0_510_3059" style="mask-type:luminance" maskUnits="userSpaceOnUse" x="0" y="0" width="3696" height="2464">
<path d="M3696 0H0V2464H3696V0Z" fill="white"/>
</mask>
<g mask="url(#mask0_510_3059)">
<path d="M0 1671.41L88.2933 1675.52C176.587 1679.63 353.173 1687.84 528.939 1654.99C705.115 1622.13 880.059 1548.21 1056.23 1548.21C1232 1548.21 1408.59 1622.13 1584.35 1656.22C1760.53 1690.72 1935.47 1684.97 2111.65 1696.88C2287.41 1708.37 2464 1737.12 2639.77 1715.36C2815.94 1693.18 2990.89 1620.9 3167.06 1555.61C3342.83 1490.72 3519.41 1433.23 3607.71 1404.48L3696 1375.73V2468.11H3607.71C3519.41 2468.11 3342.83 2468.11 3167.06 2468.11C2990.89 2468.11 2815.94 2468.11 2639.77 2468.11C2464 2468.11 2287.41 2468.11 2111.65 2468.11C1935.47 2468.11 1760.53 2468.11 1584.35 2468.11C1408.59 2468.11 1232 2468.11 1056.23 2468.11C880.059 2468.11 705.115 2468.11 528.939 2468.11C353.173 2468.11 176.587 2468.11 88.2933 2468.11H0V1671.41Z" fill="#FF6852"/>
<path d="M0 1741.23L88.2933 1746.15C176.587 1750.67 353.173 1760.53 528.939 1779.01C705.115 1797.49 880.059 1824.59 1056.23 1850.87C1232 1876.75 1408.59 1901.39 1584.35 1897.28C1760.53 1893.17 1935.47 1860.32 2111.65 1803.65C2287.41 1746.57 2464 1666.07 2639.77 1632.4C2815.94 1598.73 2990.89 1612.69 3167.06 1652.11C3342.83 1691.95 3519.41 1757.65 3607.71 1790.51L3696 1823.36V2468.11H3607.71C3519.41 2468.11 3342.83 2468.11 3167.06 2468.11C2990.89 2468.11 2815.94 2468.11 2639.77 2468.11C2464 2468.11 2287.41 2468.11 2111.65 2468.11C1935.47 2468.11 1760.53 2468.11 1584.35 2468.11C1408.59 2468.11 1232 2468.11 1056.23 2468.11C880.059 2468.11 705.115 2468.11 528.939 2468.11C353.173 2468.11 176.587 2468.11 88.2933 2468.11H0V1741.23Z" fill="#E83015"/>
<path d="M0 2201.17L88.2933 2171.61C176.587 2142.45 353.173 2083.31 528.939 2040.19C705.115 1997.07 880.059 1969.97 1056.23 1995.84C1232 2021.71 1408.59 2101.38 1584.35 2101.38C1760.53 2101.38 1935.47 2021.71 2111.65 2015.55C2287.41 2009.39 2464 2076.74 2639.77 2116.17C2815.94 2156 2990.89 2168.32 3167.06 2154.77C3342.83 2140.81 3519.41 2101.38 3607.71 2081.26L3696 2061.55V2468.11H3607.71C3519.41 2468.11 3342.83 2468.11 3167.06 2468.11C2990.89 2468.11 2815.94 2468.11 2639.77 2468.11C2464 2468.11 2287.41 2468.11 2111.65 2468.11C1935.47 2468.11 1760.53 2468.11 1584.35 2468.11C1408.59 2468.11 1232 2468.11 1056.23 2468.11C880.059 2468.11 705.115 2468.11 528.939 2468.11C353.173 2468.11 176.587 2468.11 88.2933 2468.11H0V2201.17Z" fill="#A91D00"/>
</g>
</g>
<defs>
<clipPath id="clip0_510_3059">
<rect width="3696" height="2464" fill="white"/>
</clipPath>
</defs>
</svg>
