<svg width="1000" height="735" viewBox="0 0 1000 735" fill="none" xmlns="http://www.w3.org/2000/svg">
<rect width="1000" height="735" fill="white"/>
<rect x="421" y="159" width="4" height="426" fill="#BEBEBE"/>
<rect x="897" y="159" width="4" height="426" fill="#EFEFEF"/>
<rect x="801" y="159" width="4" height="426" fill="#EFEFEF"/>
<rect x="705" y="159" width="4" height="426" fill="#EFEFEF"/>
<rect x="609" y="159" width="4" height="426" fill="#EFEFEF"/>
<rect x="513" y="159" width="4" height="426" fill="#EFEFEF"/>
<path d="M397.44 77.84L401.08 75.2C404.64 78.4 409.48 82.96 411.84 85.96L407.84 89.04C405.72 86.04 401.04 81.24 397.44 77.84ZM397.56 60.04H402.48V69.64C402.48 76.28 400.8 84.48 391.68 89.92C391 88.88 389.36 87.12 388.24 86.28C396.88 81.84 397.56 74.84 397.56 69.6V60.04ZM383.52 66.68H413.92V71.4H388.32V97.68H383.52V66.68ZM411.8 66.68H416.56V92.12C416.56 94.72 416 96.04 414.36 96.84C412.68 97.6 410.12 97.64 406.56 97.64C406.4 96.32 405.64 94.12 405 92.88C407.36 93 410.04 93 410.8 93C411.56 92.96 411.8 92.72 411.8 92.04V66.68ZM428.92 72.12H451.04V76.68H428.92V72.12ZM439.96 81.72H453.48V86.2H439.96V81.72ZM437.44 74.76H442.48V94.08L437.44 93.48V74.76ZM427.88 78.92L432.92 79.44C431.88 87.56 429.4 93.92 424.84 97.84C424.04 97 422 95.28 420.88 94.56C425.2 91.36 427.2 85.8 427.88 78.92ZM431.76 83.92C434.32 91.28 439.92 92.4 447.04 92.4C449.16 92.4 455.84 92.4 458.52 92.32C457.84 93.44 457.04 95.76 456.84 97.2H446.76C437.52 97.2 431.28 95.32 427.84 85.24L431.76 83.92ZM437.36 60.08H442.48V67.4H437.36V60.08ZM422.8 64.12H457.2V74.16H452.24V68.68H427.52V74.16H422.8V64.12ZM462.6 81.24H477.56V95.92H473.08V85.52H466.88V97.04H462.6V81.24ZM475 60.28L478.4 63.96C473.8 65.56 467.64 66.6 462.36 67.2C462.2 66.12 461.56 64.48 461 63.48C466.04 62.8 471.6 61.64 475 60.28ZM467.68 64.8H472.28V83.16H467.68V64.8ZM485.76 60H490.64V66.12H485.76V60ZM486 79H490.84V97.6H486V79ZM461.16 71.6H478.56V76.08H461.16V71.6ZM478.92 64.32H498.28V68.68H478.92V64.32ZM478.76 84.16H498.08V88.56H478.76V84.16ZM478 75.84H498.84V80.28H478V75.84ZM464.6 90.48H475.44V94.76H464.6V90.48ZM480.56 69.76L484.48 68.68C485.48 70.72 486.32 73.4 486.56 75.24L482.4 76.48C482.24 74.68 481.44 71.84 480.56 69.76ZM492 68.52L496.56 69.52C495.6 72 494.56 74.56 493.72 76.28L489.8 75.24C490.6 73.4 491.56 70.56 492 68.52ZM518.4 61.4H534.96V77.24H518.08V73.2H530.28V65.44H518.4V61.4ZM515.56 61.4H520.2V87.28H515.56V61.4ZM518.24 67.52H531.76V71H518.24V67.52ZM513.04 86.24C516.44 85.68 521.56 84.64 526.48 83.6L526.84 87.72C522.32 88.84 517.56 89.92 513.8 90.8L513.04 86.24ZM527.2 75.6C528.88 81.12 532.48 85.24 538.48 86.92C537.44 87.88 536.08 89.76 535.44 91.04C528.8 88.64 525.2 83.56 523.16 76.36L527.2 75.6ZM534.36 76.44L538.04 79.4C535.52 81.04 532.76 82.76 530.64 83.8L527.84 81.32C529.92 80.12 532.72 78 534.36 76.44ZM511.08 75.64V90.36H506.4V80.08H501.72V75.64H511.08ZM511.08 88.28C512.68 90.92 515.72 92.08 519.88 92.24C524.56 92.44 533.64 92.32 539.04 91.88C538.52 93 537.72 95.32 537.52 96.76C532.68 97 524.6 97.08 519.8 96.88C514.88 96.68 511.56 95.52 508.96 92.4C507.2 93.96 505.4 95.48 503.24 97.24L500.88 92.24C502.68 91.12 504.84 89.72 506.68 88.28H511.08ZM501.92 63.92L505.48 61.04C507.88 62.72 510.84 65.24 512.2 67.12L508.4 70.28C507.2 68.4 504.32 65.72 501.92 63.92ZM560.52 72.92V76.36H572.64V72.92H560.52ZM560.52 65.8V69.16H572.64V65.8H560.52ZM556.2 61.72H577.2V80.4H556.2V61.72ZM555.92 83.84H577.64V88.16H555.92V83.84ZM553.12 92H578.96V96.32H553.12V92ZM541.4 62.32H554.68V66.8H541.4V62.32ZM541.8 73.84H554V78.28H541.8V73.84ZM540.96 89.04C544.4 88.16 549.52 86.56 554.32 85L555.16 89.6C550.68 91.12 545.88 92.68 542.04 93.92L540.96 89.04ZM545.84 64.08H550.4V88.68L545.84 89.4V64.08ZM564.64 63.44H568.68V78.52H569.12V94.04H564.2V78.52H564.64V63.44ZM586.4 79.2H613.4V83.92H586.4V79.2ZM586.4 90.72H613.36V95.48H586.4V90.72ZM584 67.64H616.12V97.56H611.08V72.48H588.8V97.64H584V67.64ZM597.32 60.08H602.24V93.24H597.32V60.08Z" fill="black"/>
<path d="M99.98 190.66H109.98V192.68H99.98V190.66ZM100.92 194.2H103.12V202.26H100.92V194.2ZM102.12 194.2H109.1V200.94H102.12V198.94H106.88V196.16H102.12V194.2ZM96.5 186.96H112.5V189.24H98.82V204.82H96.5V186.96ZM111.16 186.96H113.52V202.06C113.52 203.3 113.28 203.98 112.5 204.36C111.74 204.76 110.64 204.82 108.94 204.82C108.86 204.16 108.5 203.06 108.14 202.46C109.2 202.5 110.36 202.5 110.7 202.5C111.04 202.48 111.16 202.36 111.16 202.02V186.96ZM127.28 186.92H132.46V189.08H127.28V186.92ZM127.28 191.44H132.46V193.54H127.28V191.44ZM127.28 196H132.48V198.14H127.28V196ZM131.42 186.92H133.74V202.16C133.74 203.32 133.52 203.98 132.8 204.34C132.1 204.72 131.08 204.78 129.58 204.78C129.52 204.14 129.2 203.1 128.9 202.5C129.76 202.54 130.74 202.54 131.02 202.52C131.32 202.52 131.42 202.42 131.42 202.12V186.92ZM126.3 186.92H128.54V194.26C128.54 197.42 128.28 202 126.58 204.84C126.18 204.42 125.2 203.72 124.68 203.48C126.18 200.92 126.3 197.12 126.3 194.26V186.92ZM115.82 188.38H125.62V190.46H115.82V188.38ZM118.44 191.64H123.2V193.48H118.44V191.64ZM118.44 194.76H123.22V196.58H118.44V194.76ZM115.58 197.92H125.48V200.02H115.58V197.92ZM117.4 186.24H119.56V198.68H117.4V186.24ZM122.06 186.24H124.26V198.68H122.06V186.24ZM118.08 200.16L120.34 200.82C119.6 202.3 118.42 203.86 117.36 204.84C116.9 204.44 115.98 203.76 115.42 203.44C116.5 202.62 117.52 201.38 118.08 200.16ZM121.04 201.06L122.86 200.06C123.66 200.94 124.68 202.16 125.14 202.98L123.2 204.12C122.8 203.32 121.84 202 121.04 201.06ZM151.66 191.34C151.04 191.7 150.4 192.06 149.66 192.42C148.42 193.04 145.92 194.22 144.08 195.4C142.42 196.48 141.3 197.64 141.3 199.02C141.3 200.46 142.7 201.24 145.48 201.24C147.52 201.24 150.22 200.92 152 200.5L151.98 203.38C150.26 203.66 148.16 203.88 145.56 203.88C141.56 203.88 138.54 202.76 138.54 199.32C138.54 196.78 140.4 195 142.78 193.44C144.68 192.18 147.2 190.94 148.42 190.24C149.18 189.8 149.74 189.46 150.26 189.04L151.66 191.34ZM141.6 187.06C142.56 189.72 143.82 192.12 144.76 193.8L142.48 195.12C141.38 193.3 140.18 190.68 139.08 188.1L141.6 187.06ZM166.625 189.3C166.345 191.34 165.945 193.68 165.245 196.04C164.045 200.08 162.325 202.56 160.145 202.56C157.905 202.56 156.065 200.1 156.065 196.72C156.065 192.12 160.085 188.16 165.265 188.16C170.205 188.16 173.345 191.6 173.345 195.98C173.345 200.18 170.765 203.16 165.725 203.94L164.205 201.58C164.985 201.48 165.545 201.38 166.085 201.26C168.625 200.64 170.625 198.82 170.625 195.88C170.625 192.74 168.665 190.5 165.205 190.5C160.965 190.5 158.645 193.96 158.645 196.48C158.645 198.5 159.445 199.48 160.205 199.48C161.065 199.48 161.825 198.2 162.665 195.5C163.245 193.62 163.685 191.32 163.885 189.22L166.625 189.3ZM187.165 194.28L189.745 195C187.425 200.5 182.985 203.36 176.925 204.86C176.645 204.26 175.885 203.14 175.405 202.58C181.285 201.46 185.405 199 187.165 194.28ZM180.725 190.82L183.205 191.78C181.765 193.64 179.525 195.56 177.645 196.74C177.185 196.22 176.225 195.3 175.625 194.86C177.525 193.92 179.565 192.38 180.725 190.82ZM182.505 194.38C184.285 198.8 188.105 201.56 194.245 202.52C193.705 203.06 193.005 204.14 192.665 204.82C186.165 203.58 182.465 200.42 180.205 195.06L182.505 194.38ZM175.925 188.32H193.665V190.68H175.925V188.32ZM183.525 185.98H185.985V189.86H183.525V185.98ZM186.705 192.08L188.685 190.62C190.445 191.8 192.805 193.58 193.965 194.88L191.825 196.54C190.805 195.26 188.505 193.36 186.705 192.08ZM201.345 188.42H214.005V190.58H201.345V188.42ZM206.225 186.02H208.665V189.44H206.225V186.02ZM206.225 195.88H208.325V203.92H206.225V195.88ZM202.905 195.7H205.065V197.66C205.065 199.9 204.725 202.72 202.025 204.74C201.685 204.26 200.885 203.52 200.345 203.16C202.645 201.52 202.905 199.32 202.905 197.58V195.7ZM205.105 189.6L207.625 190.32C206.845 191.74 206.005 193.28 205.325 194.26L203.405 193.6C204.025 192.5 204.745 190.84 205.105 189.6ZM209.025 191.64L210.865 190.66C212.185 191.9 213.685 193.64 214.325 194.88L212.325 195.98C211.765 194.76 210.325 192.94 209.025 191.64ZM201.485 192.96C204.105 192.9 208.165 192.78 211.985 192.66L211.925 194.68C208.285 194.9 204.465 195.08 201.725 195.2L201.485 192.96ZM196.505 187.88L197.805 186.12C199.045 186.6 200.665 187.42 201.465 188.1L200.085 190.06C199.345 189.36 197.765 188.44 196.505 187.88ZM195.345 193.32L196.645 191.52C197.885 191.96 199.545 192.76 200.365 193.42L198.985 195.42C198.225 194.74 196.625 193.86 195.345 193.32ZM195.925 203.02C196.945 201.5 198.385 198.96 199.505 196.62L201.345 198.12C200.345 200.24 199.145 202.56 198.025 204.54L195.925 203.02ZM209.545 195.7H211.745V201.94C211.745 202.26 211.765 202.44 211.825 202.52C211.845 202.58 211.945 202.62 212.025 202.62C212.105 202.62 212.245 202.62 212.345 202.62C212.445 202.62 212.545 202.6 212.605 202.52C212.665 202.48 212.705 202.34 212.745 202.02C212.785 201.7 212.805 201 212.825 200.1C213.205 200.44 213.905 200.8 214.445 200.98C214.405 201.88 214.325 202.92 214.185 203.34C214.045 203.76 213.845 204.06 213.525 204.24C213.245 204.42 212.785 204.52 212.425 204.52C212.105 204.52 211.665 204.52 211.365 204.52C210.905 204.52 210.365 204.36 210.025 204.02C209.685 203.66 209.545 203.24 209.545 201.88V195.7ZM223.885 187.36C223.765 187.88 223.645 188.52 223.545 189.02C223.345 189.92 223.105 191.16 222.885 192.18C222.225 195 220.625 200.7 218.525 204.08L215.905 203.04C218.285 199.84 219.785 194.56 220.345 192.04C220.725 190.24 220.945 188.54 220.925 187.04L223.885 187.36ZM230.785 189.36C232.005 191.1 233.685 194.82 234.305 196.72L231.765 197.9C231.245 195.68 229.825 192.16 228.385 190.38L230.785 189.36ZM215.785 191.46C216.505 191.5 217.185 191.48 217.925 191.46C219.525 191.42 223.325 190.98 224.805 190.98C226.925 190.98 228.425 191.92 228.425 194.82C228.425 197.18 228.125 200.42 227.285 202.14C226.625 203.54 225.505 203.98 224.005 203.98C223.225 203.98 222.285 203.86 221.605 203.7L221.165 201.06C221.945 201.28 223.085 201.48 223.605 201.48C224.285 201.48 224.805 201.28 225.105 200.62C225.665 199.5 225.925 197.06 225.925 195.1C225.925 193.5 225.245 193.26 223.985 193.26C222.805 193.26 219.345 193.7 218.245 193.84C217.665 193.92 216.625 194.06 216.025 194.16L215.785 191.46ZM230.425 186.6C230.925 187.32 231.625 188.6 232.005 189.34L230.405 190.02C229.985 189.2 229.365 188.02 228.825 187.24L230.425 186.6ZM232.785 185.68C233.305 186.44 234.045 187.72 234.405 188.42L232.805 189.1C232.405 188.26 231.745 187.1 231.205 186.34L232.785 185.68ZM235.845 192.52H253.745V194.62H235.845V192.52ZM249.865 185.94L251.865 187.28C248.265 189.56 242.585 191.12 237.905 192.04C237.525 191.5 236.805 190.5 236.285 190.04C241.265 189.36 246.765 187.88 249.865 185.94ZM244.305 194.94H246.645V204.8H244.305V194.94ZM239.085 196.58H250.845V198.68H241.465V203.78H239.085V196.58ZM249.785 196.58H252.185V201.34C252.185 202.4 251.985 202.96 251.225 203.3C250.505 203.62 249.505 203.64 248.145 203.64C248.045 203 247.725 202.14 247.445 201.58C248.245 201.62 249.165 201.62 249.425 201.6C249.685 201.6 249.785 201.54 249.785 201.32V196.58ZM237.625 187.62L239.285 186.2C243.445 187.16 249.305 189 252.525 190.48L250.685 192.14C247.805 190.72 241.985 188.72 237.625 187.62ZM242.565 190.24L245.005 190.9C243.405 194.74 240.685 198.44 236.865 200.58C236.505 200.04 235.765 199.2 235.265 198.76C238.865 196.92 241.425 193.5 242.565 190.24ZM255.865 187.18H273.805V189.2H255.865V187.18ZM260.245 186H262.625V190.4H260.245V186ZM266.905 186H269.285V190.4H266.905V186ZM260.925 191.06H273.585V192.7H260.925V191.06ZM260.685 199.36H273.845V201.18H260.685V199.36ZM266.065 189.96H268.245V197.92H266.065V189.96ZM256.285 191.66L257.625 190.08C258.765 190.54 260.265 191.34 261.045 191.96L259.625 193.74C258.925 193.1 257.425 192.22 256.285 191.66ZM255.405 195.4L256.725 193.78C257.885 194.26 259.425 195.1 260.205 195.72L258.805 197.52C258.085 196.88 256.585 195.96 255.405 195.4ZM261.945 201.84L263.445 200.54C264.305 201.12 265.385 201.98 265.905 202.6L264.305 204.04C263.845 203.4 262.805 202.46 261.945 201.84ZM255.845 203.22C256.685 202.04 257.885 200.16 258.845 198.38L260.505 199.78C259.685 201.38 258.685 203.14 257.765 204.66L255.845 203.22ZM269.745 190.16L270.785 188.94C271.625 189.26 272.605 189.84 273.145 190.26L272.065 191.64C271.525 191.16 270.525 190.52 269.745 190.16ZM263.885 196.58V197.4H270.425V196.58H263.885ZM263.885 194.66V195.46H270.425V194.66H263.885ZM261.805 193.42H272.585V198.64H261.805V193.42ZM268.225 198.2H270.485V202.66C270.485 203.66 270.325 204.18 269.625 204.5C268.945 204.8 268.045 204.8 266.825 204.8C266.745 204.2 266.465 203.42 266.205 202.84C266.905 202.86 267.685 202.88 267.925 202.86C268.145 202.86 268.225 202.8 268.225 202.6V198.2ZM283.665 187.28C283.525 187.82 283.325 188.72 283.225 189.16C282.945 190.52 282.465 192.98 281.925 195C281.205 197.8 279.865 201.9 278.765 204.26L275.965 203.32C277.165 201.32 278.685 197.12 279.425 194.32C279.945 192.44 280.405 190.26 280.545 189.06C280.645 188.32 280.665 187.5 280.605 187.04L283.665 187.28ZM278.565 190.26C281.005 190.26 283.825 189.9 286.425 189.28V191.78C283.945 192.36 280.805 192.68 278.545 192.68C277.565 192.68 276.825 192.64 276.125 192.6L276.045 190.12C277.085 190.24 277.745 190.26 278.565 190.26ZM284.845 193.34C285.965 193.22 287.385 193.12 288.705 193.12C289.845 193.12 291.045 193.18 292.205 193.3L292.165 195.7C291.145 195.58 289.925 195.46 288.725 195.46C287.325 195.46 286.105 195.52 284.845 195.68V193.34ZM285.925 198.36C285.785 198.92 285.665 199.58 285.665 200.02C285.665 200.9 286.245 201.56 288.405 201.56C289.725 201.56 291.125 201.4 292.545 201.14L292.445 203.7C291.325 203.84 289.985 204 288.385 204C285.005 204 283.205 202.82 283.205 200.8C283.205 199.88 283.365 198.92 283.545 198.12L285.925 198.36ZM290.065 187.86C290.585 188.58 291.285 189.86 291.665 190.6L290.065 191.28C289.645 190.46 289.025 189.28 288.485 188.5L290.065 187.86ZM292.445 186.94C292.965 187.7 293.705 188.96 294.065 189.68L292.465 190.36C292.065 189.52 291.405 188.36 290.865 187.6L292.445 186.94ZM297.645 194.54C298.245 194.44 299.165 194.2 299.765 194C301.145 193.6 304.525 192.44 306.945 192.44C310.125 192.44 312.245 194.32 312.245 197.36C312.245 200.96 309.045 203.44 302.705 203.82L301.645 201.36C306.205 201.24 309.585 200.02 309.585 197.3C309.585 195.82 308.465 194.76 306.705 194.76C304.385 194.76 300.405 196.42 298.685 197.14L297.645 194.54ZM324.265 187.04C324.125 187.6 323.945 188.5 323.845 188.94C323.565 190.3 323.065 192.74 322.525 194.78C321.805 197.58 320.465 201.66 319.365 204.04L316.585 203.1C317.765 201.08 319.285 196.9 320.045 194.1C320.545 192.22 321.005 190.02 321.145 188.84C321.245 188.1 321.265 187.28 321.205 186.8L324.265 187.04ZM319.165 190.04C321.605 190.04 324.425 189.66 327.025 189.04V191.54C324.545 192.12 321.405 192.46 319.145 192.46C318.165 192.46 317.425 192.42 316.725 192.38L316.645 189.88C317.685 190 318.345 190.04 319.165 190.04ZM325.445 193.1C326.565 192.98 328.005 192.9 329.305 192.9C330.445 192.9 331.645 192.96 332.805 193.08L332.765 195.48C331.745 195.36 330.525 195.22 329.325 195.22C327.945 195.22 326.705 195.28 325.445 195.44V193.1ZM326.525 198.12C326.385 198.7 326.265 199.34 326.265 199.78C326.265 200.66 326.845 201.32 329.005 201.32C330.345 201.32 331.725 201.18 333.145 200.92L333.045 203.46C331.925 203.62 330.585 203.74 328.985 203.74C325.605 203.74 323.805 202.6 323.805 200.58C323.805 199.64 323.985 198.68 324.145 197.9L326.525 198.12Z" fill="black"/>
<path d="M103.18 319.88H114.58V322.24H103.18V319.88ZM104 310.22H114.1V312.52H104V310.22ZM107.82 304.22H110.28V321.02H107.82V304.22ZM96 307.72H102.56V309.9H96V307.72ZM98.86 314.56L101.24 311.72V322.82H98.86V314.56ZM98.86 304.04H101.24V308.74H98.86V304.04ZM101 312.4C101.7 312.88 103.96 314.88 104.5 315.38L103.04 317.32C102.26 316.28 100.58 314.44 99.68 313.56L101 312.4ZM101.68 307.72H102.16L102.58 307.64L103.92 308.52C102.4 312.42 99.38 315.92 96.4 317.8C96.18 317.16 95.62 315.98 95.26 315.52C97.98 314.04 100.62 311.1 101.68 308.16V307.72ZM120.96 306.52V307.8H129.08V306.52H120.96ZM118.56 304.66H131.64V309.68H118.56V304.66ZM120.04 314.44V315.28H129.86V314.44H120.04ZM120.04 316.82V317.68H129.86V316.82H120.04ZM120.04 312.06V312.9H129.86V312.06H120.04ZM117.64 310.42H132.36V319.3H117.64V310.42ZM121.52 318.9L123.66 320.4C122.06 321.34 119.46 322.32 117.42 322.8C116.98 322.3 116.18 321.54 115.6 321.08C117.7 320.62 120.26 319.68 121.52 318.9ZM125.92 320.52L128.02 319C130.14 319.56 132.82 320.5 134.48 321.14L132.38 322.84C130.82 322.12 128.06 321.12 125.92 320.52ZM145.52 308.28C144.82 307.56 143.44 306.22 142.66 305.62L144.5 304.34C145.2 304.9 146.7 306.18 147.4 306.92L145.52 308.28ZM140.08 306.14C140.24 306.52 140.64 307.34 140.86 307.72C141.68 309.26 142.58 311.24 143.3 312.92C144.24 315.1 145.8 319.36 146.46 321.62L143.7 322.32C143.08 319.8 142.04 316.42 141.02 314.02C140.22 312.16 139.48 310.34 138.66 308.9C138.36 308.42 137.88 307.66 137.48 307.16L140.08 306.14ZM135.76 312C136.54 311.82 137.4 311.5 137.74 311.36C141.38 309.94 145.48 307.6 148.7 307.6C151.78 307.6 153.66 309.48 153.66 311.8C153.66 314.6 151.74 316.36 148.68 316.36C147.58 316.36 146.34 316.08 145.58 315.8L145.66 313.3C146.56 313.68 147.56 313.96 148.42 313.96C149.92 313.96 151.02 313.14 151.02 311.7C151.02 310.7 150.14 309.86 148.64 309.86C145.4 309.86 139.4 313.44 136.92 314.56L135.76 312ZM163.18 319.88H174.58V322.24H163.18V319.88ZM164 310.22H174.1V312.52H164V310.22ZM167.82 304.22H170.28V321.02H167.82V304.22ZM156 307.72H162.56V309.9H156V307.72ZM158.86 314.56L161.24 311.72V322.82H158.86V314.56ZM158.86 304.04H161.24V308.74H158.86V304.04ZM161 312.4C161.7 312.88 163.96 314.88 164.5 315.38L163.04 317.32C162.26 316.28 160.58 314.44 159.68 313.56L161 312.4ZM161.68 307.72H162.16L162.58 307.64L163.92 308.52C162.4 312.42 159.38 315.92 156.4 317.8C156.18 317.16 155.62 315.98 155.26 315.52C157.98 314.04 160.62 311.1 161.68 308.16V307.72ZM175.92 313.48H194.06V315.58H175.92V313.48ZM180.6 307.72H191.4V309.58H180.6V307.72ZM180.6 310.58H191.4V312.44H180.6V310.58ZM176.8 320.48C179.16 320.22 182.76 319.68 186.08 319.2L186.18 321.32C183.1 321.82 179.78 322.32 177.34 322.7L176.8 320.48ZM185.84 314.06C187.12 317.56 189.92 319.84 194.44 320.68C193.92 321.18 193.24 322.18 192.92 322.84C188.02 321.68 185.26 318.98 183.64 314.6L185.84 314.06ZM191.52 315.32L193.44 316.68C191.98 317.74 190.16 318.8 188.76 319.46L187.16 318.22C188.54 317.5 190.4 316.28 191.52 315.32ZM179.28 304.7H191.96V306.68H181.74V314.36H179.28V304.7ZM179.26 314.1H181.74V320.76L179.26 321.02V314.1ZM211.66 309.34C211.04 309.7 210.4 310.06 209.66 310.42C208.42 311.04 205.92 312.22 204.08 313.4C202.42 314.48 201.3 315.64 201.3 317.02C201.3 318.46 202.7 319.24 205.48 319.24C207.52 319.24 210.22 318.92 212 318.5L211.98 321.38C210.26 321.66 208.16 321.88 205.56 321.88C201.56 321.88 198.54 320.76 198.54 317.32C198.54 314.78 200.4 313 202.78 311.44C204.68 310.18 207.2 308.94 208.42 308.24C209.18 307.8 209.74 307.46 210.26 307.04L211.66 309.34ZM201.6 305.06C202.56 307.72 203.82 310.12 204.76 311.8L202.48 313.12C201.38 311.3 200.18 308.68 199.08 306.1L201.6 305.06ZM216.84 319.86C220.42 319.76 225.98 319.56 231.02 319.34L230.94 321.54C226.04 321.82 220.76 322.06 217.16 322.2L216.84 319.86ZM216.74 313.9H233.38V316.14H216.74V313.9ZM220.3 310.06H229.68V312.26H220.3V310.06ZM221.64 315.36L224.38 316.12C223.44 318 222.36 320.08 221.46 321.42L219.36 320.72C220.18 319.26 221.14 317.04 221.64 315.36ZM226.6 317.42L228.72 316.32C230.52 317.86 232.38 319.96 233.3 321.48L231.08 322.82C230.24 321.3 228.32 319.02 226.6 317.42ZM224.98 306.36C223.36 308.64 220.24 311.2 216.92 312.78C216.64 312.2 216 311.3 215.5 310.78C218.92 309.28 222.12 306.42 223.6 304.06H226.14C228.26 307 231.44 309.28 234.62 310.42C234.04 311.02 233.5 311.88 233.06 312.6C230.06 311.2 226.68 308.68 224.98 306.36ZM245.22 319.14C248.72 318.6 251.24 317.18 251.24 314.06C251.24 312.5 249.98 311.06 247.98 311.06C245.42 311.06 243.28 312.52 241.32 314.58L241.34 311.76C243.72 309.5 246.26 308.72 248.4 308.72C251.46 308.72 253.9 310.9 253.9 314.1C253.9 318.16 251.36 320.56 246.4 321.54L245.22 319.14ZM240.68 310.44C239.78 310.54 237.88 310.8 236.56 310.98L236.3 308.4C236.86 308.42 237.32 308.42 238.04 308.38C239.3 308.32 241.86 307.94 242.76 307.64L243.56 308.68C243.22 309.14 242.6 310.12 242.26 310.64L241.1 314.4C240.22 315.68 238.44 318.36 237.38 319.82L235.82 317.62C237.08 316.06 239.48 312.88 240.48 311.32L240.52 310.8L240.68 310.44ZM240.44 306.58C240.44 306.02 240.46 305.42 240.34 304.8L243.26 304.88C242.92 306.48 242.26 311.72 242.26 315.3C242.26 316.92 242.26 318.62 242.38 320.48C242.4 320.84 242.48 321.58 242.52 322.02H239.78C239.82 321.6 239.84 320.86 239.84 320.54C239.86 318.6 239.88 317.26 239.94 314.76C240 312.98 240.44 307.38 240.44 306.58ZM256.64 307.9C257.5 308 258.58 308.04 259.3 308.04C261.78 308.04 264.48 307.62 266.42 307L266.48 309.32C264.76 309.8 261.88 310.32 259.32 310.3C258.52 310.3 257.68 310.28 256.82 310.24L256.64 307.9ZM264.42 304.9C264.16 305.96 263.68 307.92 263.14 309.62C262.22 312.5 260.42 316.22 258.72 318.58L256.3 317.34C258.1 315.14 259.9 311.64 260.68 309.48C261.16 308.04 261.6 306.18 261.66 304.64L264.42 304.9ZM269.12 311.14C269.06 311.98 269.08 312.82 269.1 313.7C269.14 314.88 269.32 317.86 269.32 318.98C269.32 320.84 268.32 322.3 265.46 322.3C262.98 322.3 261.02 321.18 261.02 318.98C261.02 317.04 262.66 315.52 265.44 315.52C268.94 315.52 271.7 317.28 273.36 318.78L272.04 320.94C270.6 319.6 268.32 317.54 265.3 317.54C264.14 317.54 263.38 318.04 263.38 318.74C263.38 319.48 264.02 320 265.12 320C266.48 320 266.92 319.24 266.92 318.12C266.92 316.92 266.7 313.24 266.6 311.14H269.12ZM272.56 312.2C271.4 311.26 269.12 309.96 267.74 309.34L269.04 307.38C270.48 308 272.94 309.34 273.98 310.08L272.56 312.2ZM284.22 305.22C284.1 305.74 283.98 306.38 283.86 306.88C283.68 307.78 283.42 309.02 283.22 310.04C282.56 312.86 280.94 318.56 278.86 321.94L276.24 320.9C278.62 317.7 280.12 312.42 280.68 309.9C281.06 308.1 281.28 306.4 281.26 304.9L284.22 305.22ZM291.12 307.08C292.34 308.82 294.02 312.62 294.64 314.54L292.1 315.72C291.58 313.48 290.16 309.88 288.72 308.1L291.12 307.08ZM276.12 309.32C276.84 309.36 277.52 309.34 278.26 309.32C279.86 309.28 283.64 308.84 285.14 308.84C287.24 308.84 288.74 309.78 288.74 312.68C288.74 315.04 288.46 318.28 287.62 320C286.94 321.4 285.84 321.84 284.34 321.84C283.56 321.84 282.62 321.72 281.92 321.56L281.5 318.92C282.28 319.14 283.42 319.34 283.94 319.34C284.62 319.34 285.12 319.14 285.44 318.48C286 317.36 286.26 314.92 286.26 312.96C286.26 311.36 285.56 311.12 284.32 311.12C283.12 311.12 279.68 311.56 278.58 311.7C278 311.78 276.96 311.92 276.36 312.02L276.12 309.32ZM297.84 312.54C298.44 312.44 299.36 312.2 299.96 312C301.34 311.6 304.72 310.44 307.14 310.44C310.32 310.44 312.44 312.32 312.44 315.36C312.44 318.96 309.24 321.44 302.9 321.82L301.84 319.36C306.4 319.24 309.78 318.02 309.78 315.3C309.78 313.82 308.66 312.76 306.9 312.76C304.58 312.76 300.6 314.42 298.88 315.14L297.84 312.54ZM324.46 305.04C324.32 305.6 324.14 306.5 324.04 306.94C323.76 308.3 323.26 310.74 322.72 312.78C322 315.58 320.66 319.66 319.56 322.04L316.78 321.1C317.96 319.08 319.48 314.9 320.24 312.1C320.74 310.22 321.2 308.02 321.34 306.84C321.44 306.1 321.46 305.28 321.4 304.8L324.46 305.04ZM319.36 308.04C321.8 308.04 324.62 307.66 327.22 307.04V309.54C324.74 310.12 321.6 310.46 319.34 310.46C318.36 310.46 317.62 310.42 316.92 310.38L316.84 307.88C317.88 308 318.54 308.04 319.36 308.04ZM325.64 311.1C326.76 310.98 328.2 310.9 329.5 310.9C330.64 310.9 331.84 310.96 333 311.08L332.96 313.48C331.94 313.36 330.72 313.22 329.52 313.22C328.14 313.22 326.9 313.28 325.64 313.44V311.1ZM326.72 316.12C326.58 316.7 326.46 317.34 326.46 317.78C326.46 318.66 327.04 319.32 329.2 319.32C330.54 319.32 331.92 319.18 333.34 318.92L333.24 321.46C332.12 321.62 330.78 321.74 329.18 321.74C325.8 321.74 324 320.6 324 318.58C324 317.64 324.18 316.68 324.34 315.9L326.72 316.12Z" fill="black"/>
<path d="M105.92 544.58H112.5V546.8H105.92V544.58ZM111.82 544.58H114.06C114.06 544.58 114.04 545.34 114.04 545.62C113.86 553.86 113.7 556.78 113.1 557.66C112.66 558.3 112.24 558.52 111.62 558.64C111.04 558.76 110.2 558.76 109.3 558.72C109.26 558.08 109.02 557.12 108.66 556.5C109.42 556.58 110.08 556.58 110.44 556.58C110.74 556.58 110.92 556.52 111.1 556.22C111.5 555.66 111.68 552.88 111.82 545.08V544.58ZM107.78 540.22H110C109.96 549 109.96 555.26 105.98 558.86C105.66 558.3 104.9 557.46 104.36 557.12C107.94 553.94 107.76 548.48 107.78 540.22ZM96.4 553.06H105.44V554.74H96.4V553.06ZM96.1 550.38H105.64V552.12H96.1V550.38ZM95.84 541.46H105.94V543.22H95.84V541.46ZM99.72 545.54H101.92V556.8H99.72V545.54ZM97.64 540.04H99.82V544.5H97.64V540.04ZM101.76 540.04H103.96V544.5H101.76V540.04ZM95.66 556.22C98.2 556.06 102.08 555.72 105.7 555.38L105.72 557.24C102.24 557.62 98.52 557.98 95.92 558.22L95.66 556.22ZM98.42 546.46V547.92H103.26V546.46H98.42ZM96.36 544.86H105.44V549.54H96.36V544.86ZM116.06 540.92H122.62V542.94H116.06V540.92ZM124.06 551.22H132.2V553.22H124.06V551.22ZM115.78 547.04H123.22V549.14H115.78V547.04ZM119.04 547.9H121.32V556.22C121.32 557.3 121.14 557.94 120.44 558.32C119.76 558.68 118.86 558.72 117.6 558.72C117.54 558.08 117.22 557.08 116.92 556.44C117.66 556.48 118.48 556.48 118.72 556.48C118.96 556.46 119.04 556.4 119.04 556.18V547.9ZM131.42 551.22H133.84C133.84 551.22 133.82 551.82 133.78 552.14C133.44 555.6 133.1 557.16 132.52 557.78C132.08 558.26 131.64 558.42 131.06 558.5C130.56 558.56 129.72 558.58 128.8 558.54C128.76 557.88 128.52 556.94 128.16 556.34C128.88 556.4 129.54 556.42 129.86 556.42C130.16 556.42 130.34 556.4 130.52 556.2C130.88 555.86 131.18 554.6 131.42 551.54V551.22ZM127.18 549.44H129.56C129.24 553.54 128.4 556.94 123.66 558.82C123.4 558.24 122.78 557.4 122.28 556.96C126.42 555.44 126.9 552.7 127.18 549.44ZM116.52 545.1L118.02 543.56C119.64 544.14 121.84 545.18 122.98 545.98L121.36 547.7C120.34 546.9 118.18 545.76 116.52 545.1ZM122.64 547.04H122.96L123.28 546.94L124.72 547.42C124.4 549.24 123.88 551.3 123.34 552.66L121.74 551.9C122.1 550.74 122.46 548.88 122.64 547.38V547.04ZM130.66 543.02L133.16 543.4C131.8 547.12 128.82 549.04 124.9 550.16C124.62 549.62 123.88 548.64 123.4 548.16C127.08 547.42 129.74 545.88 130.66 543.02ZM126.66 540L128.9 540.62C127.9 542.78 126.28 544.86 124.78 546.16C124.32 545.78 123.38 545.12 122.82 544.82C124.38 543.68 125.86 541.86 126.66 540ZM126.94 543.54C128.32 545.82 131.12 547.48 134.62 548.14C134.1 548.62 133.42 549.56 133.1 550.18C129.4 549.24 126.62 547.16 124.94 544.18L126.94 543.54ZM118.82 547.76L120.36 548.36C119.6 551.02 118.26 554.04 116.56 555.58C116.34 554.9 115.82 553.9 115.44 553.26C116.9 552.02 118.2 549.76 118.82 547.76ZM126.6 542.04H134.08V544.02H125.64L126.6 542.04ZM122.04 540.92H122.56L122.92 540.84L124.46 541.8C123.56 543.26 121.98 544.86 120.54 545.86C120.12 545.5 119.44 545 118.98 544.72C120.22 543.84 121.5 542.36 122.04 541.34V540.92ZM147.34 540.02H149.6V554.14H147.34V540.02ZM141.42 548.06L151.78 543.66L152.66 545.7L142.32 550.18L141.42 548.06ZM143.4 541.96H145.68V554.92C145.68 556.1 145.86 556.26 147.1 556.26C147.7 556.26 150.36 556.26 150.98 556.26C152.08 556.26 152.28 555.82 152.44 553.76C152.96 554.12 153.9 554.5 154.54 554.62C154.24 557.46 153.52 558.4 151.18 558.4C150.52 558.4 147.52 558.4 146.9 558.4C144.16 558.4 143.4 557.68 143.4 554.9V541.96ZM151.32 543.92H151.18L151.6 543.62L152.02 543.32L153.7 543.92L153.6 544.32C153.6 548.14 153.56 550.56 153.48 551.38C153.4 552.3 153.06 552.78 152.44 553.04C151.86 553.32 151 553.32 150.36 553.32C150.28 552.72 150.1 551.82 149.84 551.32C150.18 551.34 150.64 551.34 150.82 551.34C151.06 551.34 151.18 551.28 151.24 550.92C151.32 550.52 151.32 548.34 151.32 543.92ZM135.68 544.66H142.28V546.92H135.68V544.66ZM138 540.3H140.24V553.56H138V540.3ZM135.4 553.58C137.06 552.98 139.66 551.9 142.1 550.86L142.64 552.98C140.52 554.06 138.22 555.14 136.36 555.98L135.4 553.58ZM155.26 560.64L160.26 540.88H162.2L157.22 560.64H155.26ZM172.934 546.44H179.554V548.6H172.934V546.44ZM173.154 555.6H179.834V557.72H173.154V555.6ZM176.114 542.72C175.034 544.52 173.194 546.86 171.194 548.38C170.894 547.74 170.294 546.82 169.834 546.3C171.874 544.84 173.914 542.2 174.874 540.32H177.154C178.534 542.42 180.554 544.82 182.494 546.04C181.994 546.64 181.434 547.52 181.034 548.26C179.234 546.86 177.214 544.46 176.114 542.72ZM171.894 550.38H180.814V558.7H178.514V552.5H174.094V558.78H171.894V550.38ZM166.334 540.04L168.414 540.82C167.594 542.34 166.674 544.12 165.894 545.24L164.294 544.54C165.014 543.36 165.874 541.44 166.334 540.04ZM168.634 542.4L170.574 543.28C169.134 545.58 167.174 548.36 165.654 550.1L164.274 549.32C165.754 547.5 167.594 544.56 168.634 542.4ZM163.254 544.78L164.394 543.14C165.454 544.06 166.694 545.32 167.214 546.24L165.974 548.1C165.494 547.14 164.274 545.74 163.254 544.78ZM168.034 547.18L169.614 546.52C170.394 547.86 171.154 549.62 171.394 550.78L169.694 551.54C169.474 550.38 168.794 548.56 168.034 547.18ZM163.234 548.84C165.074 548.78 167.774 548.68 170.414 548.56L170.394 550.46C167.934 550.64 165.374 550.8 163.434 550.94L163.234 548.84ZM168.474 552.16L170.154 551.62C170.654 552.76 171.174 554.26 171.394 555.26L169.634 555.88C169.434 554.88 168.914 553.34 168.474 552.16ZM164.094 551.78L166.074 552.12C165.874 554.04 165.434 556.04 164.854 557.32C164.434 557.06 163.534 556.64 163.034 556.44C163.614 555.26 163.934 553.48 164.094 551.78ZM166.334 549.9H168.434V558.82H166.334V549.9ZM188.154 547.02H196.914V549.24H188.154V547.02ZM189.014 542.56H199.614V544.86H189.014V542.56ZM183.674 551.38H201.814V553.66H183.674V551.38ZM196.074 547.02H198.554C198.554 547.02 198.514 547.76 198.474 548.08C197.994 554.26 197.474 556.82 196.574 557.78C195.954 558.46 195.374 558.64 194.454 558.74C193.694 558.84 192.374 558.82 191.034 558.76C190.994 558.06 190.654 557.02 190.194 556.34C191.554 556.48 192.914 556.48 193.494 556.48C193.934 556.48 194.194 556.44 194.494 556.22C195.194 555.6 195.674 553.04 196.074 547.44V547.02ZM188.214 540L190.734 540.22C190.174 543.52 189.374 547.6 188.774 550.1L186.254 549.9C186.934 547.34 187.754 543.18 188.214 540ZM202.994 560.64L207.994 540.88H209.934L204.954 560.64H202.994ZM211.589 552.26H229.429V554.22H211.589V552.26ZM211.629 543.28H229.349V545.26H211.629V543.28ZM212.449 546.86H228.589V548.74H212.449V546.86ZM213.449 549.62H227.649V551.36H213.449V549.62ZM219.249 547.82H221.629V558.8H219.249V547.82ZM217.509 540H219.749V544.22H217.509V540ZM221.209 540H223.489V544.08H221.209V540ZM218.809 553.14L220.689 553.98C218.789 556.06 215.589 557.76 212.509 558.56C212.189 557.98 211.489 557.06 210.969 556.56C213.989 555.98 217.169 554.66 218.809 553.14ZM222.109 553.08C223.729 554.66 226.849 555.9 229.969 556.42C229.429 556.92 228.709 557.92 228.349 558.58C225.189 557.78 222.129 556.08 220.249 553.82L222.109 553.08ZM225.809 540.16L228.329 540.76C227.689 541.86 227.009 542.94 226.489 543.68L224.549 543.08C225.009 542.26 225.529 541.04 225.809 540.16ZM223.169 544.46L225.709 545.04C225.169 546 224.649 546.88 224.229 547.52L222.189 546.94C222.549 546.22 222.969 545.2 223.169 544.46ZM213.069 540.8L215.129 540.1C215.709 540.96 216.369 542.16 216.649 542.94L214.469 543.72C214.249 542.94 213.609 541.72 213.069 540.8ZM215.609 545.28L217.929 544.92C218.269 545.48 218.649 546.26 218.809 546.8L216.369 547.22C216.249 546.7 215.909 545.86 215.609 545.28ZM242.769 540.02H245.149V546.42H242.769V540.02ZM238.729 540.94H249.329V542.4H238.729V540.94ZM239.209 543.08H248.869V544.46H239.209V543.08ZM238.229 545.14H249.729V546.64H238.229V545.14ZM241.629 551V551.86H246.489V551H241.629ZM241.629 553.22V554.08H246.489V553.22H241.629ZM241.629 548.8V549.62H246.489V548.8H241.629ZM239.469 547.32H248.749V555.56H239.469V547.32ZM244.629 556.48L246.229 555.32C247.529 556.1 249.129 557.06 250.029 557.7L247.949 558.82C247.189 558.22 245.809 557.22 244.629 556.48ZM241.709 555.22L243.569 556.46C242.349 557.4 240.349 558.38 238.729 558.9C238.369 558.46 237.709 557.8 237.249 557.4C238.849 556.94 240.749 556 241.709 555.22ZM234.049 540.04L236.129 540.76C235.309 542.32 234.389 544.1 233.629 545.22L232.029 544.56C232.729 543.36 233.589 541.42 234.049 540.04ZM236.309 542.4L238.249 543.3C236.789 545.54 234.849 548.32 233.309 550.04L231.929 549.26C233.429 547.46 235.249 544.54 236.309 542.4ZM230.949 544.7L232.129 543.1C233.169 544.04 234.389 545.34 234.869 546.28L233.569 548.12C233.129 547.14 231.949 545.72 230.949 544.7ZM235.749 547.14L237.429 546.46C238.189 547.8 238.949 549.54 239.169 550.68L237.369 551.48C237.149 550.34 236.469 548.52 235.749 547.14ZM230.889 548.8C232.689 548.7 235.269 548.56 237.769 548.4L237.789 550.34C235.409 550.56 232.949 550.72 231.049 550.86L230.889 548.8ZM236.229 552.14L237.889 551.62C238.369 552.74 238.789 554.2 238.909 555.16L237.129 555.74C237.049 554.78 236.669 553.28 236.229 552.14ZM231.749 551.78L233.669 552.1C233.469 554.02 233.049 556 232.469 557.28C232.069 557.02 231.189 556.64 230.729 556.44C231.289 555.26 231.589 553.46 231.749 551.78ZM233.949 549.86H236.009V558.8H233.949V549.86ZM259.189 544.8H261.669V550.14H259.189V544.8ZM253.349 545.76H267.769V547.74H253.349V545.76ZM251.329 548.88H269.629V550.92H251.329V548.88ZM252.069 552.1H269.029V554.14H252.069V552.1ZM263.149 550.64H265.629V556.32C265.629 557.48 265.369 558.08 264.509 558.44C263.669 558.76 262.529 558.8 261.029 558.8C260.909 558.12 260.509 557.16 260.169 556.56C261.189 556.6 262.369 556.6 262.709 556.58C263.049 556.58 263.149 556.52 263.149 556.26V550.64ZM253.869 541.46H260.249V543.42H253.869V541.46ZM261.809 541.46H269.509V543.42H261.809V541.46ZM254.029 539.86L256.309 540.48C255.469 542.46 254.109 544.46 252.809 545.72C252.349 545.32 251.369 544.68 250.809 544.38C252.129 543.28 253.329 541.56 254.029 539.86ZM262.109 539.86L264.409 540.42C263.689 542.36 262.449 544.26 261.209 545.44C260.749 545.04 259.769 544.4 259.229 544.1C260.469 543.1 261.549 541.48 262.109 539.86ZM254.629 542.98L256.569 542.22C257.069 542.98 257.649 544 257.869 544.68L255.809 545.52C255.629 544.86 255.109 543.78 254.629 542.98ZM263.349 543.02L265.289 542.24C265.889 542.98 266.629 544 266.949 544.7L264.909 545.54C264.629 544.88 263.949 543.8 263.349 543.02ZM254.729 554.96L256.469 553.6C257.609 554.4 258.989 555.58 259.609 556.48L257.749 557.98C257.189 557.06 255.869 555.82 254.729 554.96ZM282.289 543.3C282.009 545.34 281.609 547.68 280.909 550.04C279.709 554.08 277.989 556.56 275.809 556.56C273.569 556.56 271.729 554.1 271.729 550.72C271.729 546.12 275.749 542.16 280.929 542.16C285.869 542.16 289.009 545.6 289.009 549.98C289.009 554.18 286.429 557.16 281.389 557.94L279.869 555.58C280.649 555.48 281.209 555.38 281.749 555.26C284.289 554.64 286.289 552.82 286.289 549.88C286.289 546.74 284.329 544.5 280.869 544.5C276.629 544.5 274.309 547.96 274.309 550.48C274.309 552.5 275.109 553.48 275.869 553.48C276.729 553.48 277.489 552.2 278.329 549.5C278.909 547.62 279.349 545.32 279.549 543.22L282.289 543.3ZM296.749 541.64H304.749V543.66H296.749V541.64ZM304.089 541.64H304.569L304.989 541.54L306.629 542.48C304.069 547.32 298.469 549.74 292.509 550.84C292.309 550.2 291.809 549.22 291.389 548.7C296.849 547.92 302.169 545.72 304.089 542V541.64ZM297.609 539.98L300.229 540.48C298.709 542.96 296.609 545.1 293.409 546.82C293.029 546.24 292.249 545.4 291.709 545.02C294.669 543.68 296.589 541.78 297.609 539.98ZM297.029 542.78C299.329 545.84 304.069 547.72 309.829 548.34C309.349 548.86 308.709 549.86 308.409 550.48C302.489 549.66 297.849 547.48 295.029 543.66L297.029 542.78ZM291.549 551.14H309.409V553.24H291.549V551.14ZM299.209 549.46H301.649V558.8H299.209V549.46ZM298.509 552.2L300.369 552.98C298.589 555.42 295.569 557.5 292.589 558.58C292.249 558 291.549 557.12 291.029 556.62C293.929 555.82 296.949 554.08 298.509 552.2ZM302.349 552.12C303.929 553.98 306.969 555.66 309.909 556.46C309.389 556.94 308.669 557.88 308.309 558.48C305.329 557.42 302.289 555.34 300.449 552.96L302.349 552.12ZM322.209 540.28H324.629V558.78H322.209V540.28ZM318.809 541.12L321.109 541.6C320.549 544.3 319.589 547.1 318.529 548.86C318.049 548.5 317.009 547.96 316.429 547.7C317.509 546.12 318.349 543.58 318.809 541.12ZM319.569 543.9H328.829V546.24H318.989L319.569 543.9ZM316.789 549.7H329.789V552.06H316.789V549.7ZM315.309 540.1L317.569 540.8C316.289 544.2 314.249 547.8 312.109 550.1C311.889 549.52 311.229 548.2 310.829 547.62C312.609 545.8 314.309 542.96 315.309 540.1ZM313.329 545.62L315.609 543.34V543.36V558.78H313.329V545.62ZM331.749 541.36H349.189V543.82H331.749V541.36ZM341.409 548.06L343.269 546.5C345.409 548.06 348.489 550.36 349.949 551.96L347.909 553.8C346.589 552.22 343.629 549.76 341.409 548.06ZM340.609 542.26L343.289 543.2C341.009 547.42 337.369 551.5 332.769 553.9C332.389 553.26 331.629 552.26 331.129 551.72C335.409 549.7 338.949 545.82 340.609 542.26ZM339.149 547.1L341.789 544.48V558.76H339.149V547.1ZM351.229 547.9H369.749V550.52H351.229V547.9ZM371.169 541.1H380.349V543.28H371.169V541.1ZM371.629 550.54H379.889V552.7H371.629V550.54ZM374.549 548.62H376.829V556.08H374.549V548.62ZM370.989 555.44C373.369 555.18 376.989 554.7 380.349 554.22L380.449 556.48C377.269 557 373.829 557.5 371.329 557.88L370.989 555.44ZM370.969 546.38C372.949 546.3 375.889 546.1 378.729 545.9L378.749 547.92C376.089 548.18 373.309 548.4 371.229 548.58L370.969 546.38ZM373.669 542.5L376.109 543.02C375.429 544.66 374.629 546.48 373.969 547.62L372.089 547.1C372.649 545.84 373.329 543.9 373.669 542.5ZM376.589 544.66L378.449 543.76C379.309 545 380.289 546.62 380.669 547.7L378.669 548.74C378.329 547.64 377.409 545.94 376.589 544.66ZM381.989 543.68H389.649V545.9H381.989V543.68ZM382.269 540L384.749 540.4C384.049 544.32 382.749 547.96 380.909 550.24C380.489 549.8 379.469 548.96 378.909 548.6C380.649 546.66 381.729 543.42 382.269 540ZM386.169 545.04L388.629 545.3C387.649 552.16 385.389 556.4 380.129 558.86C379.909 558.3 379.209 557.18 378.769 556.68C383.529 554.72 385.469 551 386.169 545.04ZM383.169 545.42C384.049 550.6 386.009 554.86 390.069 556.72C389.509 557.2 388.769 558.16 388.409 558.82C384.029 556.5 382.089 551.88 380.989 545.78L383.169 545.42Z" fill="black"/>
<path d="M884.594 617.28C882.254 617.28 880.694 616.36 879.574 615.26L880.954 613.4C881.774 614.22 882.834 614.9 884.194 614.9C885.754 614.9 886.814 613.92 886.814 612.16C886.814 610.44 885.814 609.48 884.334 609.48C883.454 609.48 882.974 609.7 882.114 610.26L880.754 609.38L881.174 602.2H889.094V604.66H883.714L883.434 607.8C884.014 607.54 884.534 607.4 885.214 607.4C887.694 607.4 889.774 608.86 889.774 612.1C889.774 615.38 887.314 617.28 884.594 617.28ZM896.771 617.28C893.751 617.28 891.751 614.66 891.751 609.54C891.751 604.44 893.751 601.94 896.771 601.94C899.771 601.94 901.771 604.44 901.771 609.54C901.771 614.66 899.771 617.28 896.771 617.28ZM896.771 614.98C898.051 614.98 898.991 613.7 898.991 609.54C898.991 605.4 898.051 604.2 896.771 604.2C895.491 604.2 894.531 605.4 894.531 609.54C894.531 613.7 895.491 614.98 896.771 614.98ZM906.908 611.32C904.788 611.32 903.288 609.56 903.288 606.6C903.288 603.64 904.788 601.94 906.908 601.94C909.028 601.94 910.528 603.64 910.528 606.6C910.528 609.56 909.028 611.32 906.908 611.32ZM906.908 609.66C907.768 609.66 908.428 608.76 908.428 606.6C908.428 604.42 907.768 603.6 906.908 603.6C906.028 603.6 905.368 604.42 905.368 606.6C905.368 608.76 906.028 609.66 906.908 609.66ZM907.388 617.28L915.428 601.94H917.188L909.128 617.28H907.388ZM917.668 617.28C915.568 617.28 914.068 615.54 914.068 612.56C914.068 609.6 915.568 607.88 917.668 607.88C919.768 607.88 921.268 609.6 921.268 612.56C921.268 615.54 919.768 617.28 917.668 617.28ZM917.668 615.62C918.528 615.62 919.208 614.74 919.208 612.56C919.208 610.38 918.528 609.56 917.668 609.56C916.808 609.56 916.128 610.38 916.128 612.56C916.128 614.74 916.808 615.62 917.668 615.62Z" fill="#8A8A8A"/>
<path d="M789.794 617V607.9C789.794 607.04 789.874 605.7 789.914 604.82H789.834C789.454 605.62 789.054 606.44 788.634 607.24L786.354 610.92H794.294V613.18H783.494V611.16L788.994 602.2H792.534V617H789.794ZM800.771 617.28C797.751 617.28 795.751 614.66 795.751 609.54C795.751 604.44 797.751 601.94 800.771 601.94C803.771 601.94 805.771 604.44 805.771 609.54C805.771 614.66 803.771 617.28 800.771 617.28ZM800.771 614.98C802.051 614.98 802.991 613.7 802.991 609.54C802.991 605.4 802.051 604.2 800.771 604.2C799.491 604.2 798.531 605.4 798.531 609.54C798.531 613.7 799.491 614.98 800.771 614.98ZM810.908 611.32C808.788 611.32 807.288 609.56 807.288 606.6C807.288 603.64 808.788 601.94 810.908 601.94C813.028 601.94 814.528 603.64 814.528 606.6C814.528 609.56 813.028 611.32 810.908 611.32ZM810.908 609.66C811.768 609.66 812.428 608.76 812.428 606.6C812.428 604.42 811.768 603.6 810.908 603.6C810.028 603.6 809.368 604.42 809.368 606.6C809.368 608.76 810.028 609.66 810.908 609.66ZM811.388 617.28L819.428 601.94H821.188L813.128 617.28H811.388ZM821.668 617.28C819.568 617.28 818.068 615.54 818.068 612.56C818.068 609.6 819.568 607.88 821.668 607.88C823.768 607.88 825.268 609.6 825.268 612.56C825.268 615.54 823.768 617.28 821.668 617.28ZM821.668 615.62C822.528 615.62 823.208 614.74 823.208 612.56C823.208 610.38 822.528 609.56 821.668 609.56C820.808 609.56 820.128 610.38 820.128 612.56C820.128 614.74 820.808 615.62 821.668 615.62Z" fill="#8A8A8A"/>
<path d="M692.534 617.28C690.194 617.28 688.614 616.42 687.574 615.22L688.974 613.36C689.854 614.22 690.914 614.9 692.254 614.9C693.774 614.9 694.794 614.14 694.794 612.82C694.794 611.36 693.934 610.46 690.714 610.46V608.34C693.434 608.34 694.314 607.42 694.314 606.1C694.314 604.94 693.594 604.24 692.334 604.24C691.274 604.24 690.414 604.74 689.534 605.56L688.034 603.74C689.314 602.64 690.734 601.94 692.454 601.94C695.314 601.94 697.254 603.34 697.254 605.88C697.254 607.46 696.374 608.64 694.794 609.24V609.34C696.474 609.82 697.754 611.04 697.754 613C697.754 615.72 695.374 617.28 692.534 617.28ZM704.771 617.28C701.751 617.28 699.751 614.66 699.751 609.54C699.751 604.44 701.751 601.94 704.771 601.94C707.771 601.94 709.771 604.44 709.771 609.54C709.771 614.66 707.771 617.28 704.771 617.28ZM704.771 614.98C706.051 614.98 706.991 613.7 706.991 609.54C706.991 605.4 706.051 604.2 704.771 604.2C703.491 604.2 702.531 605.4 702.531 609.54C702.531 613.7 703.491 614.98 704.771 614.98ZM714.908 611.32C712.788 611.32 711.288 609.56 711.288 606.6C711.288 603.64 712.788 601.94 714.908 601.94C717.028 601.94 718.528 603.64 718.528 606.6C718.528 609.56 717.028 611.32 714.908 611.32ZM714.908 609.66C715.768 609.66 716.428 608.76 716.428 606.6C716.428 604.42 715.768 603.6 714.908 603.6C714.028 603.6 713.368 604.42 713.368 606.6C713.368 608.76 714.028 609.66 714.908 609.66ZM715.388 617.28L723.428 601.94H725.188L717.128 617.28H715.388ZM725.668 617.28C723.568 617.28 722.068 615.54 722.068 612.56C722.068 609.6 723.568 607.88 725.668 607.88C727.768 607.88 729.268 609.6 729.268 612.56C729.268 615.54 727.768 617.28 725.668 617.28ZM725.668 615.62C726.528 615.62 727.208 614.74 727.208 612.56C727.208 610.38 726.528 609.56 725.668 609.56C724.808 609.56 724.128 610.38 724.128 612.56C724.128 614.74 724.808 615.62 725.668 615.62Z" fill="#8A8A8A"/>
<path d="M591.914 617V615.32C595.954 611.7 598.314 608.92 598.314 606.64C598.314 605.16 597.534 604.24 596.114 604.24C595.014 604.24 594.154 604.94 593.394 605.78L591.774 604.18C593.134 602.72 594.474 601.94 596.494 601.94C599.274 601.94 601.154 603.72 601.154 606.48C601.154 609.18 598.914 612.06 596.214 614.7C596.954 614.62 597.934 614.52 598.634 614.52H601.834V617H591.914ZM608.771 617.28C605.751 617.28 603.751 614.66 603.751 609.54C603.751 604.44 605.751 601.94 608.771 601.94C611.771 601.94 613.771 604.44 613.771 609.54C613.771 614.66 611.771 617.28 608.771 617.28ZM608.771 614.98C610.051 614.98 610.991 613.7 610.991 609.54C610.991 605.4 610.051 604.2 608.771 604.2C607.491 604.2 606.531 605.4 606.531 609.54C606.531 613.7 607.491 614.98 608.771 614.98ZM618.908 611.32C616.788 611.32 615.288 609.56 615.288 606.6C615.288 603.64 616.788 601.94 618.908 601.94C621.028 601.94 622.528 603.64 622.528 606.6C622.528 609.56 621.028 611.32 618.908 611.32ZM618.908 609.66C619.768 609.66 620.428 608.76 620.428 606.6C620.428 604.42 619.768 603.6 618.908 603.6C618.028 603.6 617.368 604.42 617.368 606.6C617.368 608.76 618.028 609.66 618.908 609.66ZM619.388 617.28L627.428 601.94H629.188L621.128 617.28H619.388ZM629.668 617.28C627.568 617.28 626.068 615.54 626.068 612.56C626.068 609.6 627.568 607.88 629.668 607.88C631.768 607.88 633.268 609.6 633.268 612.56C633.268 615.54 631.768 617.28 629.668 617.28ZM629.668 615.62C630.528 615.62 631.208 614.74 631.208 612.56C631.208 610.38 630.528 609.56 629.668 609.56C628.808 609.56 628.128 610.38 628.128 612.56C628.128 614.74 628.808 615.62 629.668 615.62Z" fill="#8A8A8A"/>
<path d="M496.694 617V614.62H499.894V605.26H497.194V603.44C498.694 603.16 499.694 602.78 500.654 602.2H502.834V614.62H505.614V617H496.694ZM512.771 617.28C509.751 617.28 507.751 614.66 507.751 609.54C507.751 604.44 509.751 601.94 512.771 601.94C515.771 601.94 517.771 604.44 517.771 609.54C517.771 614.66 515.771 617.28 512.771 617.28ZM512.771 614.98C514.051 614.98 514.991 613.7 514.991 609.54C514.991 605.4 514.051 604.2 512.771 604.2C511.491 604.2 510.531 605.4 510.531 609.54C510.531 613.7 511.491 614.98 512.771 614.98ZM522.908 611.32C520.788 611.32 519.288 609.56 519.288 606.6C519.288 603.64 520.788 601.94 522.908 601.94C525.028 601.94 526.528 603.64 526.528 606.6C526.528 609.56 525.028 611.32 522.908 611.32ZM522.908 609.66C523.768 609.66 524.428 608.76 524.428 606.6C524.428 604.42 523.768 603.6 522.908 603.6C522.028 603.6 521.368 604.42 521.368 606.6C521.368 608.76 522.028 609.66 522.908 609.66ZM523.388 617.28L531.428 601.94H533.188L525.128 617.28H523.388ZM533.668 617.28C531.568 617.28 530.068 615.54 530.068 612.56C530.068 609.6 531.568 607.88 533.668 607.88C535.768 607.88 537.268 609.6 537.268 612.56C537.268 615.54 535.768 617.28 533.668 617.28ZM533.668 615.62C534.528 615.62 535.208 614.74 535.208 612.56C535.208 610.38 534.528 609.56 533.668 609.56C532.808 609.56 532.128 610.38 532.128 612.56C532.128 614.74 532.808 615.62 533.668 615.62Z" fill="#8A8A8A"/>
<path d="M414.373 617.28C411.353 617.28 409.353 614.66 409.353 609.54C409.353 604.44 411.353 601.94 414.373 601.94C417.373 601.94 419.373 604.44 419.373 609.54C419.373 614.66 417.373 617.28 414.373 617.28ZM414.373 614.98C415.653 614.98 416.593 613.7 416.593 609.54C416.593 605.4 415.653 604.2 414.373 604.2C413.093 604.2 412.133 605.4 412.133 609.54C412.133 613.7 413.093 614.98 414.373 614.98ZM424.51 611.32C422.39 611.32 420.89 609.56 420.89 606.6C420.89 603.64 422.39 601.94 424.51 601.94C426.63 601.94 428.13 603.64 428.13 606.6C428.13 609.56 426.63 611.32 424.51 611.32ZM424.51 609.66C425.37 609.66 426.03 608.76 426.03 606.6C426.03 604.42 425.37 603.6 424.51 603.6C423.63 603.6 422.97 604.42 422.97 606.6C422.97 608.76 423.63 609.66 424.51 609.66ZM424.99 617.28L433.03 601.94H434.79L426.73 617.28H424.99ZM435.27 617.28C433.17 617.28 431.67 615.54 431.67 612.56C431.67 609.6 433.17 607.88 435.27 607.88C437.37 607.88 438.87 609.6 438.87 612.56C438.87 615.54 437.37 617.28 435.27 617.28ZM435.27 615.62C436.13 615.62 436.81 614.74 436.81 612.56C436.81 610.38 436.13 609.56 435.27 609.56C434.41 609.56 433.73 610.38 433.73 612.56C433.73 614.74 434.41 615.62 435.27 615.62Z" fill="#8A8A8A"/>
<path d="M99.98 426.66H109.98V428.68H99.98V426.66ZM100.92 430.2H103.12V438.26H100.92V430.2ZM102.12 430.2H109.1V436.94H102.12V434.94H106.88V432.16H102.12V430.2ZM96.5 422.96H112.5V425.24H98.82V440.82H96.5V422.96ZM111.16 422.96H113.52V438.06C113.52 439.3 113.28 439.98 112.5 440.36C111.74 440.76 110.64 440.82 108.94 440.82C108.86 440.16 108.5 439.06 108.14 438.46C109.2 438.5 110.36 438.5 110.7 438.5C111.04 438.48 111.16 438.36 111.16 438.02V422.96ZM127.28 422.92H132.46V425.08H127.28V422.92ZM127.28 427.44H132.46V429.54H127.28V427.44ZM127.28 432H132.48V434.14H127.28V432ZM131.42 422.92H133.74V438.16C133.74 439.32 133.52 439.98 132.8 440.34C132.1 440.72 131.08 440.78 129.58 440.78C129.52 440.14 129.2 439.1 128.9 438.5C129.76 438.54 130.74 438.54 131.02 438.52C131.32 438.52 131.42 438.42 131.42 438.12V422.92ZM126.3 422.92H128.54V430.26C128.54 433.42 128.28 438 126.58 440.84C126.18 440.42 125.2 439.72 124.68 439.48C126.18 436.92 126.3 433.12 126.3 430.26V422.92ZM115.82 424.38H125.62V426.46H115.82V424.38ZM118.44 427.64H123.2V429.48H118.44V427.64ZM118.44 430.76H123.22V432.58H118.44V430.76ZM115.58 433.92H125.48V436.02H115.58V433.92ZM117.4 422.24H119.56V434.68H117.4V422.24ZM122.06 422.24H124.26V434.68H122.06V422.24ZM118.08 436.16L120.34 436.82C119.6 438.3 118.42 439.86 117.36 440.84C116.9 440.44 115.98 439.76 115.42 439.44C116.5 438.62 117.52 437.38 118.08 436.16ZM121.04 437.06L122.86 436.06C123.66 436.94 124.68 438.16 125.14 438.98L123.2 440.12C122.8 439.32 121.84 438 121.04 437.06ZM151.66 427.34C151.04 427.7 150.4 428.06 149.66 428.42C148.42 429.04 145.92 430.22 144.08 431.4C142.42 432.48 141.3 433.64 141.3 435.02C141.3 436.46 142.7 437.24 145.48 437.24C147.52 437.24 150.22 436.92 152 436.5L151.98 439.38C150.26 439.66 148.16 439.88 145.56 439.88C141.56 439.88 138.54 438.76 138.54 435.32C138.54 432.78 140.4 431 142.78 429.44C144.68 428.18 147.2 426.94 148.42 426.24C149.18 425.8 149.74 425.46 150.26 425.04L151.66 427.34ZM141.6 423.06C142.56 425.72 143.82 428.12 144.76 429.8L142.48 431.12C141.38 429.3 140.18 426.68 139.08 424.1L141.6 423.06ZM159.96 423.94H173.6V425.94H159.96V423.94ZM160.18 426.88H171.78V428.82H160.18V426.88ZM157.8 429.82H169.36V431.84H157.8V429.82ZM159.72 421.92L162.24 422.48C161.28 425.68 159.58 428.56 157.64 430.34C157.16 429.92 156.06 429.16 155.44 428.82C157.44 427.3 158.96 424.72 159.72 421.92ZM164.68 431.94L167.02 432.7C164.98 436.46 161.58 439.36 157.92 441.12C157.56 440.62 156.68 439.68 156.14 439.26C159.82 437.8 162.98 435.2 164.68 431.94ZM168.56 429.82H171.04C170.98 434.64 171.24 438.44 172.4 438.44C172.72 438.44 172.8 437.36 172.82 435.74C173.3 436.3 173.9 436.9 174.4 437.26C174.22 439.76 173.78 440.82 172.24 440.84C168.94 440.82 168.6 435.94 168.56 429.82ZM157.84 434.16L159.56 432.58C162.44 434.08 166.22 436.52 168.06 438.36L166.14 440.2C164.48 438.36 160.8 435.8 157.84 434.16ZM184.08 423.36C183.96 423.88 183.84 424.52 183.74 425.02C183.54 425.92 183.3 427.16 183.08 428.18C182.42 431 180.82 436.7 178.72 440.08L176.1 439.04C178.48 435.84 179.98 430.56 180.54 428.04C180.92 426.24 181.14 424.54 181.12 423.04L184.08 423.36ZM190.98 425.36C192.2 427.1 193.88 430.82 194.5 432.72L191.96 433.9C191.44 431.68 190.02 428.16 188.58 426.38L190.98 425.36ZM175.98 427.46C176.7 427.5 177.38 427.48 178.12 427.46C179.72 427.42 183.52 426.98 185 426.98C187.12 426.98 188.62 427.92 188.62 430.82C188.62 433.18 188.32 436.42 187.48 438.14C186.82 439.54 185.7 439.98 184.2 439.98C183.42 439.98 182.48 439.86 181.8 439.7L181.36 437.06C182.14 437.28 183.28 437.48 183.8 437.48C184.48 437.48 185 437.28 185.3 436.62C185.86 435.5 186.12 433.06 186.12 431.1C186.12 429.5 185.44 429.26 184.18 429.26C183 429.26 179.54 429.7 178.44 429.84C177.86 429.92 176.82 430.06 176.22 430.16L175.98 427.46ZM190.62 422.6C191.12 423.32 191.82 424.6 192.2 425.34L190.6 426.02C190.18 425.2 189.56 424.02 189.02 423.24L190.62 422.6ZM192.98 421.68C193.5 422.44 194.24 423.72 194.6 424.42L193 425.1C192.6 424.26 191.94 423.1 191.4 422.34L192.98 421.68ZM200 428.48H210.04V430.58H200V428.48ZM199.76 437.98H210.08V440.08H199.76V437.98ZM198.7 432.58H211.44V440.84H208.98V434.7H201.06V440.84H198.7V432.58ZM204.92 424.4C203.28 426.74 200.2 429.38 196.9 431.14C196.58 430.58 195.92 429.7 195.4 429.2C198.86 427.52 202.08 424.5 203.56 422.04H206.06C208.24 425.12 211.46 427.66 214.68 428.96C214.08 429.56 213.52 430.38 213.1 431.12C210.02 429.5 206.66 426.78 204.92 424.4ZM225.22 437.14C228.72 436.6 231.24 435.18 231.24 432.06C231.24 430.5 229.98 429.06 227.98 429.06C225.42 429.06 223.28 430.52 221.32 432.58L221.34 429.76C223.72 427.5 226.26 426.72 228.4 426.72C231.46 426.72 233.9 428.9 233.9 432.1C233.9 436.16 231.36 438.56 226.4 439.54L225.22 437.14ZM220.68 428.44C219.78 428.54 217.88 428.8 216.56 428.98L216.3 426.4C216.86 426.42 217.32 426.42 218.04 426.38C219.3 426.32 221.86 425.94 222.76 425.64L223.56 426.68C223.22 427.14 222.6 428.12 222.26 428.64L221.1 432.4C220.22 433.68 218.44 436.36 217.38 437.82L215.82 435.62C217.08 434.06 219.48 430.88 220.48 429.32L220.52 428.8L220.68 428.44ZM220.44 424.58C220.44 424.02 220.46 423.42 220.34 422.8L223.26 422.88C222.92 424.48 222.26 429.72 222.26 433.3C222.26 434.92 222.26 436.62 222.38 438.48C222.4 438.84 222.48 439.58 222.52 440.02H219.78C219.82 439.6 219.84 438.86 219.84 438.54C219.86 436.6 219.88 435.26 219.94 432.76C220 430.98 220.44 425.38 220.44 424.58ZM236.64 425.9C237.5 426 238.58 426.04 239.3 426.04C241.78 426.04 244.48 425.62 246.42 425L246.48 427.32C244.76 427.8 241.88 428.32 239.32 428.3C238.52 428.3 237.68 428.28 236.82 428.24L236.64 425.9ZM244.42 422.9C244.16 423.96 243.68 425.92 243.14 427.62C242.22 430.5 240.42 434.22 238.72 436.58L236.3 435.34C238.1 433.14 239.9 429.64 240.68 427.48C241.16 426.04 241.6 424.18 241.66 422.64L244.42 422.9ZM249.12 429.14C249.06 429.98 249.08 430.82 249.1 431.7C249.14 432.88 249.32 435.86 249.32 436.98C249.32 438.84 248.32 440.3 245.46 440.3C242.98 440.3 241.02 439.18 241.02 436.98C241.02 435.04 242.66 433.52 245.44 433.52C248.94 433.52 251.7 435.28 253.36 436.78L252.04 438.94C250.6 437.6 248.32 435.54 245.3 435.54C244.14 435.54 243.38 436.04 243.38 436.74C243.38 437.48 244.02 438 245.12 438C246.48 438 246.92 437.24 246.92 436.12C246.92 434.92 246.7 431.24 246.6 429.14H249.12ZM252.56 430.2C251.4 429.26 249.12 427.96 247.74 427.34L249.04 425.38C250.48 426 252.94 427.34 253.98 428.08L252.56 430.2ZM264.22 423.22C264.1 423.74 263.98 424.38 263.86 424.88C263.68 425.78 263.42 427.02 263.22 428.04C262.56 430.86 260.94 436.56 258.86 439.94L256.24 438.9C258.62 435.7 260.12 430.42 260.68 427.9C261.06 426.1 261.28 424.4 261.26 422.9L264.22 423.22ZM271.12 425.08C272.34 426.82 274.02 430.62 274.64 432.54L272.1 433.72C271.58 431.48 270.16 427.88 268.72 426.1L271.12 425.08ZM256.12 427.32C256.84 427.36 257.52 427.34 258.26 427.32C259.86 427.28 263.64 426.84 265.14 426.84C267.24 426.84 268.74 427.78 268.74 430.68C268.74 433.04 268.46 436.28 267.62 438C266.94 439.4 265.84 439.84 264.34 439.84C263.56 439.84 262.62 439.72 261.92 439.56L261.5 436.92C262.28 437.14 263.42 437.34 263.94 437.34C264.62 437.34 265.12 437.14 265.44 436.48C266 435.36 266.26 432.92 266.26 430.96C266.26 429.36 265.56 429.12 264.32 429.12C263.12 429.12 259.68 429.56 258.58 429.7C258 429.78 256.96 429.92 256.36 430.02L256.12 427.32ZM277.84 430.54C278.44 430.44 279.36 430.2 279.96 430C281.34 429.6 284.72 428.44 287.14 428.44C290.32 428.44 292.44 430.32 292.44 433.36C292.44 436.96 289.24 439.44 282.9 439.82L281.84 437.36C286.4 437.24 289.78 436.02 289.78 433.3C289.78 431.82 288.66 430.76 286.9 430.76C284.58 430.76 280.6 432.42 278.88 433.14L277.84 430.54ZM304.46 423.04C304.32 423.6 304.14 424.5 304.04 424.94C303.76 426.3 303.26 428.74 302.72 430.78C302 433.58 300.66 437.66 299.56 440.04L296.78 439.1C297.96 437.08 299.48 432.9 300.24 430.1C300.74 428.22 301.2 426.02 301.34 424.84C301.44 424.1 301.46 423.28 301.4 422.8L304.46 423.04ZM299.36 426.04C301.8 426.04 304.62 425.66 307.22 425.04V427.54C304.74 428.12 301.6 428.46 299.34 428.46C298.36 428.46 297.62 428.42 296.92 428.38L296.84 425.88C297.88 426 298.54 426.04 299.36 426.04ZM305.64 429.1C306.76 428.98 308.2 428.9 309.5 428.9C310.64 428.9 311.84 428.96 313 429.08L312.96 431.48C311.94 431.36 310.72 431.22 309.52 431.22C308.14 431.22 306.9 431.28 305.64 431.44V429.1ZM306.72 434.12C306.58 434.7 306.46 435.34 306.46 435.78C306.46 436.66 307.04 437.32 309.2 437.32C310.54 437.32 311.92 437.18 313.34 436.92L313.24 439.46C312.12 439.62 310.78 439.74 309.18 439.74C305.8 439.74 304 438.6 304 436.58C304 435.64 304.18 434.68 304.34 433.9L306.72 434.12Z" fill="black"/>
<path d="M99.774 670.114L101.636 670.576C100.964 671.556 100.18 672.578 99.578 673.236L98.206 672.774C98.766 672.032 99.424 670.94 99.774 670.114ZM103.274 671.36L104.604 670.604C105.766 671.43 107.264 672.69 107.992 673.586L106.55 674.44C105.892 673.572 104.45 672.256 103.274 671.36ZM96.12 672.368C98.682 672.312 102.672 672.214 106.312 672.088L106.256 673.474C102.7 673.642 98.878 673.782 96.302 673.852L96.12 672.368ZM95.644 674.636H108.398V676.05H95.644V674.636ZM102.224 676.484L103.512 677.114C102.42 677.87 100.768 678.43 99.382 678.752C99.172 678.458 98.794 678.038 98.458 677.772C99.732 677.52 101.384 677.016 102.224 676.484ZM103.512 678.024L104.828 678.654C103.456 679.76 101.272 680.502 99.228 680.936C99.032 680.572 98.668 680.068 98.332 679.746C100.194 679.452 102.392 678.836 103.512 678.024ZM105.192 679.508L106.662 680.166C104.828 682.028 101.734 682.868 98.164 683.302C98.01 682.868 97.688 682.294 97.394 681.916C100.642 681.636 103.694 680.95 105.192 679.508ZM100.208 673.18L101.86 673.572C100.81 676.428 98.836 678.5 96.372 679.732C96.134 679.396 95.518 678.738 95.154 678.444C97.562 677.436 99.354 675.63 100.208 673.18ZM104.52 674.972C105.346 676.344 107.012 677.646 108.706 678.304C108.342 678.612 107.852 679.228 107.614 679.62C105.822 678.78 104.142 677.226 103.12 675.49L104.52 674.972ZM109.826 674.048H122.076V675.462H109.826V674.048ZM110.904 671.57H118.772V672.942H110.904V671.57ZM114.152 670.114H115.818V674.748H114.152V670.114ZM119.584 676.05L120.606 677.156C118.744 677.66 116.084 677.94 113.83 678.08C113.788 677.744 113.606 677.24 113.466 676.946C115.622 676.792 118.114 676.456 119.584 676.05ZM120.158 670.674L121.516 671.416C118.744 674.958 114.502 677.716 110.246 679.396C110.022 679.06 109.518 678.402 109.21 678.108C113.522 676.61 117.652 673.95 120.158 670.674ZM113.046 676.148L114.712 676.33C114.39 677.814 113.942 679.62 113.606 680.768L111.926 680.544C112.304 679.396 112.766 677.562 113.046 676.148ZM118.94 678.78H120.634C120.634 678.78 120.606 679.228 120.55 679.466C120.228 681.384 119.878 682.336 119.402 682.77C119.024 683.12 118.646 683.218 118.044 683.246C117.582 683.288 116.784 683.288 115.93 683.26C115.902 682.784 115.692 682.14 115.412 681.706C116.21 681.776 117.106 681.804 117.47 681.804C117.736 681.804 117.918 681.776 118.072 681.664C118.394 681.426 118.702 680.6 118.926 678.976L118.94 678.78ZM113.298 678.78H119.332V680.138H112.906L113.298 678.78ZM130 674.79C129.258 674.79 128.656 674.23 128.656 673.474C128.656 672.704 129.258 672.144 130 672.144C130.728 672.144 131.33 672.704 131.33 673.474C131.33 674.23 130.728 674.79 130 674.79ZM130 681.468C129.258 681.468 128.656 680.908 128.656 680.152C128.656 679.382 129.258 678.822 130 678.822C130.728 678.822 131.33 679.382 131.33 680.152C131.33 680.908 130.728 681.468 130 681.468ZM147.906 670.842C148.256 671.346 148.76 672.242 149.026 672.76L147.892 673.236C147.612 672.662 147.178 671.836 146.8 671.29L147.906 670.842ZM149.572 670.212C149.936 670.73 150.454 671.626 150.692 672.116L149.586 672.592C149.292 672.004 148.844 671.192 148.452 670.66L149.572 670.212ZM139.688 677.646C140.304 676.092 140.836 674.118 141.018 672.326L143.048 672.76C142.936 673.152 142.768 673.838 142.712 674.16C142.516 675.14 142.012 677.058 141.522 678.36C141.018 679.718 140.192 681.314 139.464 682.364L137.504 681.538C138.372 680.39 139.198 678.892 139.688 677.646ZM146.59 677.366C146.058 675.896 145.162 673.824 144.56 672.76L146.422 672.158C147.01 673.236 147.962 675.392 148.494 676.736C148.998 678.01 149.74 680.236 150.118 681.622L148.046 682.294C147.668 680.642 147.15 678.878 146.59 677.366ZM157.398 671.5C157.734 672.2 158.588 674.356 158.854 675.252L157.09 675.882C156.838 674.986 156.054 672.942 155.648 672.088L157.398 671.5ZM163.586 673.362C163.432 673.726 163.334 674.146 163.236 674.454C162.844 675.798 162.228 677.464 161.08 678.99C159.61 680.922 157.566 682.336 155.564 683.092L154.01 681.51C155.914 680.978 158.098 679.704 159.526 677.912C160.674 676.456 161.304 674.426 161.542 672.886L163.586 673.362ZM153.492 672.368C153.926 673.264 154.794 675.35 155.116 676.302L153.324 676.96C153.03 676.05 152.106 673.754 151.714 672.998L153.492 672.368ZM161.64 670.296C161.99 670.814 162.48 671.668 162.746 672.186L161.57 672.676C161.304 672.074 160.856 671.304 160.492 670.772L161.64 670.296ZM163.53 669.848C163.894 670.366 164.384 671.206 164.664 671.71L163.488 672.214C163.194 671.64 162.76 670.842 162.368 670.324L163.53 669.848ZM177.586 673.306C177.432 673.572 177.236 673.95 177.124 674.3C176.746 675.56 175.948 677.422 174.674 678.976C173.344 680.6 171.664 681.888 169.032 682.924L167.38 681.454C170.236 680.586 171.79 679.368 173.022 677.982C173.974 676.89 174.786 675.21 175.01 674.174H170.292L170.936 672.578C171.552 672.578 174.492 672.578 174.926 672.578C175.36 672.578 175.836 672.522 176.144 672.41L177.586 673.306ZM173.022 671.08C172.686 671.57 172.322 672.214 172.168 672.508C171.216 674.202 169.55 676.176 167.534 677.548L165.966 676.386C168.416 674.888 169.648 673.082 170.334 671.878C170.544 671.542 170.838 670.898 170.964 670.408L173.022 671.08ZM190.228 671.136C190.2 671.528 190.186 671.976 190.186 672.55C190.186 673.264 190.186 674.622 190.186 675.308C190.186 678.332 189.598 679.62 188.548 680.768C187.624 681.79 186.182 682.462 185.16 682.798L183.69 681.244C185.09 680.922 186.21 680.39 187.064 679.48C188.016 678.43 188.212 677.38 188.212 675.196C188.212 674.496 188.212 673.152 188.212 672.55C188.212 671.976 188.17 671.528 188.114 671.136H190.228ZM183.746 671.262C183.718 671.584 183.69 671.892 183.69 672.326C183.69 672.942 183.69 676.274 183.69 677.058C183.69 677.408 183.718 677.954 183.746 678.276H181.702C181.73 678.024 181.772 677.478 181.772 677.044C181.772 676.246 181.772 672.942 181.772 672.326C181.772 672.074 181.758 671.584 181.716 671.262H183.746ZM198.74 675.98H206.454V677.506H198.74V675.98ZM200.182 672.536H206.104V674.062H200.182V672.536ZM201.82 670.114H203.458V683.26H201.82V670.114ZM201.372 676.764L202.674 677.156C201.876 679.382 200.546 681.454 198.936 682.63C198.684 682.224 198.18 681.636 197.816 681.342C199.328 680.404 200.686 678.584 201.372 676.764ZM203.99 676.834C204.564 678.486 205.684 680.236 206.846 681.216C206.468 681.51 205.908 682.098 205.628 682.532C204.466 681.314 203.43 679.2 202.814 677.198L203.99 676.834ZM199.706 670.8L201.232 671.066C200.966 672.872 200.42 674.65 199.692 675.77C199.398 675.532 198.74 675.112 198.362 674.93C199.062 673.936 199.482 672.368 199.706 670.8ZM193.574 672.732H198.628V674.272H193.574V672.732ZM195.394 670.114H197.032V683.26H195.394V670.114ZM195.38 673.88L196.276 674.23C195.884 676.554 195.044 679.284 194.078 680.74C193.91 680.25 193.546 679.48 193.266 679.032C194.204 677.856 195.016 675.644 195.38 673.88ZM196.962 674.594C197.284 675 198.446 676.82 198.684 677.24L197.718 678.374C197.41 677.534 196.612 675.896 196.22 675.182L196.962 674.594ZM216.982 671.038L218.102 670.114C218.732 670.548 219.558 671.206 219.95 671.668L218.774 672.676C218.41 672.2 217.626 671.5 216.982 671.038ZM207.714 672.494H220.314V674.132H207.714V672.494ZM208.232 675.742H214.294V677.366H208.232V675.742ZM210.36 676.666H212.04V681.412H210.36V676.666ZM207.7 681.174C209.394 680.922 212.138 680.446 214.658 679.97L214.784 681.468C212.474 681.972 209.996 682.49 208.176 682.868L207.7 681.174ZM214.588 670.17H216.394C216.268 675.924 217.332 681.51 218.662 681.51C218.97 681.51 219.124 680.74 219.208 678.976C219.586 679.368 220.202 679.774 220.678 679.942C220.426 682.616 219.852 683.274 218.522 683.274C215.484 683.274 214.602 676.652 214.588 670.17ZM222.288 681.202C224.794 681.132 228.686 680.992 232.214 680.838L232.158 682.378C228.728 682.574 225.032 682.742 222.512 682.84L222.288 681.202ZM222.218 677.03H233.866V678.598H222.218V677.03ZM224.71 674.342H231.276V675.882H224.71V674.342ZM225.648 678.052L227.566 678.584C226.908 679.9 226.152 681.356 225.522 682.294L224.052 681.804C224.626 680.782 225.298 679.228 225.648 678.052ZM229.12 679.494L230.604 678.724C231.864 679.802 233.166 681.272 233.81 682.336L232.256 683.274C231.668 682.21 230.324 680.614 229.12 679.494ZM227.986 671.752C226.852 673.348 224.668 675.14 222.344 676.246C222.148 675.84 221.7 675.21 221.35 674.846C223.744 673.796 225.984 671.794 227.02 670.142H228.798C230.282 672.2 232.508 673.796 234.734 674.594C234.328 675.014 233.95 675.616 233.642 676.12C231.542 675.14 229.176 673.376 227.986 671.752ZM240.726 681.216H248.706V682.868H240.726V681.216ZM241.3 674.454H248.37V676.064H241.3V674.454ZM243.974 670.254H245.696V682.014H243.974V670.254ZM235.7 672.704H240.292V674.23H235.7V672.704ZM237.702 677.492L239.368 675.504V683.274H237.702V677.492ZM237.702 670.128H239.368V673.418H237.702V670.128ZM239.2 675.98C239.69 676.316 241.272 677.716 241.65 678.066L240.628 679.424C240.082 678.696 238.906 677.408 238.276 676.792L239.2 675.98ZM239.676 672.704H240.012L240.306 672.648L241.244 673.264C240.18 675.994 238.066 678.444 235.98 679.76C235.826 679.312 235.434 678.486 235.182 678.164C237.086 677.128 238.934 675.07 239.676 673.012V672.704ZM269.104 670.632C269.048 670.898 268.992 671.5 268.978 671.85C268.908 672.956 268.866 674.468 268.866 675.77C268.866 677.296 268.95 679.718 268.95 680.53C268.95 682.252 268.334 682.728 267.41 682.728C266.052 682.728 264.12 681.552 264.12 680.068C264.12 678.71 265.87 677.282 267.816 676.596C269.062 676.148 270.476 675.924 271.54 675.924C273.696 675.924 275.404 677.044 275.404 678.976C275.404 680.642 274.536 681.888 272.31 682.434C271.666 682.574 271.036 682.616 270.462 682.672L269.832 680.852C270.448 680.852 271.064 680.852 271.54 680.754C272.674 680.558 273.584 679.984 273.584 678.976C273.584 678.01 272.744 677.464 271.526 677.464C270.336 677.464 269.104 677.716 268.012 678.15C266.752 678.626 265.856 679.382 265.856 679.984C265.856 680.432 266.514 680.81 266.878 680.81C267.13 680.81 267.312 680.698 267.312 680.208C267.312 679.48 267.242 677.534 267.242 675.84C267.242 674.244 267.256 672.508 267.256 671.864C267.256 671.584 267.214 670.884 267.172 670.632H269.104ZM273.094 672.158C274.158 672.676 275.782 673.586 276.538 674.118L275.684 675.546C275.012 674.986 273.192 673.936 272.324 673.516L273.094 672.158ZM264.498 672.928C265.324 673.026 265.926 673.026 266.43 673.026C267.886 673.026 270.07 672.76 271.512 672.34L271.554 674.076C269.972 674.44 267.718 674.692 266.486 674.692C265.562 674.692 265.016 674.678 264.54 674.622L264.498 672.928ZM285.302 670.38H287.024V682.168H285.302V670.38ZM281.564 674.356H290.58V675.98H281.564V674.356ZM281.942 681.104H290.342V682.728H281.942V681.104ZM279.324 674.23L280.962 672.578L280.99 672.606V683.232H279.324V674.23ZM280.808 670.128L282.432 670.646C281.438 673.11 279.842 675.672 278.204 677.268C278.036 676.876 277.546 675.966 277.238 675.56C278.652 674.258 280.01 672.2 280.808 670.128ZM297.09 670.114H298.798V681.664C298.798 682.49 298.588 682.826 298.056 683.064C297.51 683.274 296.754 683.302 295.564 683.302C295.48 682.91 295.214 682.322 295.004 681.986C295.676 682.014 296.502 682 296.74 682C297.006 681.986 297.09 681.902 297.09 681.664V670.114ZM291.84 671.024H304.16V672.354H291.84V671.024ZM294.878 673.978V674.65H301.066V673.978H294.878ZM293.282 672.914H302.788V675.714H293.282V672.914ZM292.932 676.33H303.026V681.804H301.318V677.478H292.932V676.33ZM291.518 678.066H304.482V679.34H291.518V678.066ZM292.82 679.998H302.228V681.216H292.82V679.998ZM311.258 672.214C312.98 672.452 315.78 672.382 317.278 672.2V674.006C315.57 674.174 313.022 674.174 311.272 674.006L311.258 672.214ZM312.378 678.192C312.266 678.668 312.21 679.004 312.21 679.368C312.21 679.998 312.756 680.376 314.184 680.376C315.43 680.376 316.466 680.264 317.684 679.998L317.726 681.888C316.816 682.07 315.682 682.168 314.1 682.168C311.692 682.168 310.53 681.3 310.53 679.872C310.53 679.312 310.614 678.766 310.782 678.052L312.378 678.192ZM309.102 671.276C309.004 671.57 308.822 672.284 308.766 672.536C308.57 673.46 308.08 676.26 308.08 677.66C308.08 677.94 308.094 678.29 308.136 678.57C308.346 678.094 308.57 677.618 308.78 677.142L309.648 677.828C309.242 679.004 308.78 680.516 308.64 681.258C308.598 681.468 308.556 681.776 308.556 681.916C308.57 682.07 308.57 682.308 308.584 682.504L306.974 682.602C306.694 681.65 306.428 679.942 306.428 678.038C306.428 675.924 306.848 673.572 307.002 672.48C307.058 672.102 307.128 671.57 307.142 671.122L309.102 671.276ZM322.682 676.764H329.346V677.926H322.682V676.764ZM322.472 678.668H329.5V679.872H322.472V678.668ZM325.118 677.338H326.63V678.836C326.63 680.166 326.112 681.664 323.2 682.616C322.99 682.294 322.556 681.804 322.22 681.538C324.768 680.852 325.118 679.648 325.118 678.808V677.338ZM326.49 679.214C326.966 680.32 328.03 681.118 329.57 681.426C329.262 681.706 328.856 682.252 328.674 682.63C326.938 682.14 325.846 681.034 325.258 679.466L326.49 679.214ZM323.298 675.854L324.586 675.476C324.894 675.896 325.174 676.456 325.286 676.848L323.914 677.254C323.83 676.862 323.578 676.274 323.298 675.854ZM327.204 675.476L328.73 675.882C328.352 676.442 327.988 676.988 327.722 677.352L326.616 676.974C326.826 676.54 327.078 675.91 327.204 675.476ZM320.932 672.494H324.46V673.53H320.932V672.494ZM327.386 672.494H330.928V673.53H327.386V672.494ZM330.312 670.646H331.964V681.496C331.964 682.252 331.838 682.686 331.376 682.966C330.942 683.232 330.312 683.26 329.43 683.26C329.388 682.826 329.192 682.112 328.996 681.692C329.43 681.72 329.934 681.72 330.088 681.72C330.256 681.72 330.312 681.65 330.312 681.468V670.646ZM321.086 670.646H325.524V675.406H321.086V674.258H323.942V671.808H321.086V670.646ZM331.166 670.646V671.808H328.03V674.286H331.166V675.448H326.434V670.646H331.166ZM320.092 670.646H321.744V683.26H320.092V670.646ZM342.142 670.716C342.1 670.954 342.058 671.696 342.044 671.92C342.002 672.844 342.03 675.7 342.044 676.82L340.294 676.232C340.294 675.364 340.294 672.676 340.238 671.934C340.196 671.374 340.14 670.898 340.112 670.716H342.142ZM334.218 672.466C336.304 672.466 340 672.354 341.75 672.354C343.178 672.354 345.306 672.34 346.09 672.354L346.062 674.006C345.194 673.964 343.766 673.922 341.708 673.922C339.16 673.922 336.374 674.034 334.26 674.146L334.218 672.466ZM341.806 676.61C341.806 678.892 340.966 680.026 339.356 680.026C338.278 680.026 336.934 679.172 336.934 677.464C336.934 675.882 338.222 674.846 339.734 674.846C341.582 674.846 342.548 676.204 342.548 677.94C342.548 679.774 341.47 682.084 338.054 683.05L336.57 681.566C338.95 681.048 340.812 680.11 340.812 677.66C340.812 676.75 340.322 676.316 339.706 676.316C339.16 676.316 338.614 676.694 338.614 677.436C338.614 678.066 339.132 678.472 339.706 678.472C340.364 678.472 340.938 677.912 340.49 676.246L341.806 676.61ZM350.08 671.346C350.472 671.388 350.948 671.416 351.34 671.416C352.096 671.416 355.078 671.346 355.876 671.276C356.464 671.234 356.786 671.178 356.954 671.122L357.85 672.382C357.528 672.592 357.192 672.788 356.884 673.026C356.128 673.558 354.658 674.79 353.762 675.49C354.238 675.364 354.658 675.336 355.092 675.336C357.472 675.336 359.278 676.82 359.278 678.85C359.278 681.062 357.598 682.812 354.21 682.812C352.264 682.812 350.794 681.93 350.794 680.516C350.794 679.382 351.83 678.346 353.314 678.346C355.232 678.346 356.296 679.634 356.338 681.174L354.7 681.384C354.672 680.376 354.14 679.676 353.314 679.676C352.796 679.676 352.446 679.998 352.446 680.362C352.446 680.88 353.02 681.23 353.874 681.23C356.24 681.23 357.444 680.334 357.444 678.836C357.444 677.562 356.184 676.708 354.546 676.708C352.39 676.708 351.004 677.856 349.506 679.55L348.232 678.234C349.226 677.45 350.92 676.022 351.732 675.336C352.516 674.692 353.986 673.516 354.672 672.9C353.958 672.928 352.026 672.998 351.27 673.054C350.892 673.082 350.458 673.11 350.136 673.166L350.08 671.346ZM374.356 672.536C374.216 672.718 373.95 673.054 373.824 673.25C373.166 674.342 371.836 676.12 370.45 677.1L368.994 675.938C370.128 675.252 371.22 674.02 371.584 673.334C370.73 673.334 365.158 673.334 364.276 673.334C363.702 673.334 363.226 673.362 362.568 673.432V671.472C363.114 671.556 363.702 671.626 364.276 671.626C365.158 671.626 371.094 671.626 371.822 671.626C372.214 671.626 372.984 671.57 373.25 671.5L374.356 672.536ZM368.658 674.412C368.658 677.884 368.574 680.74 364.766 682.798L363.128 681.468C363.59 681.314 364.094 681.076 364.612 680.684C366.376 679.452 366.712 677.982 366.712 675.686C366.712 675.238 366.698 674.874 366.628 674.412H368.658ZM377.813 671.36C378.779 672.018 380.599 673.474 381.425 674.328L379.997 675.784C379.269 675 377.505 673.474 376.483 672.774L377.813 671.36ZM376.049 680.684C378.247 680.376 380.053 679.662 381.411 678.864C383.805 677.436 385.625 675.308 386.521 673.418L387.599 675.378C386.549 677.282 384.687 679.214 382.433 680.572C381.005 681.426 379.199 682.196 377.239 682.532L376.049 680.684ZM394.711 671.038C394.557 671.402 394.375 671.878 394.249 672.186C394.011 672.886 393.577 673.922 393.213 674.636C392.653 675.742 391.701 677.086 390.777 677.912L389.013 676.848C390.021 676.106 390.917 674.846 391.449 673.964C391.827 673.32 392.093 672.578 392.261 672.046C392.415 671.584 392.527 671.052 392.555 670.618L394.711 671.038ZM392.499 673.208C393.619 673.208 398.939 673.208 399.905 673.208C400.255 673.208 400.899 673.18 401.361 673.11V675.014C400.829 674.972 400.227 674.972 399.905 674.972C398.925 674.972 393.619 674.972 392.359 674.972L392.499 673.208ZM397.973 674.216C397.875 678.346 396.405 681.076 393.703 682.77L391.813 681.51C392.317 681.3 392.807 681.02 393.129 680.74C394.725 679.522 395.971 677.59 396.027 674.216H397.973ZM403.713 675.518C404.231 675.56 405.239 675.616 405.967 675.616C407.619 675.616 412.239 675.616 413.485 675.616C414.143 675.616 414.759 675.546 415.137 675.518V677.73C414.801 677.716 414.087 677.646 413.499 677.646C412.225 677.646 407.619 677.646 405.967 677.646C405.183 677.646 404.245 677.688 403.713 677.73V675.518ZM420.821 680.67C420.821 679.592 420.821 673.796 420.821 672.62C420.821 672.116 420.779 671.43 420.681 670.926H422.865C422.809 671.43 422.739 672.032 422.739 672.62C422.739 674.16 422.753 679.634 422.753 680.67C422.753 681.062 422.809 682.042 422.879 682.616H420.681C420.779 682.07 420.821 681.216 420.821 680.67ZM422.333 674.552C424.195 675.07 427.219 676.176 428.591 676.848L427.807 678.794C426.211 677.968 423.859 677.072 422.333 676.568V674.552ZM431.027 682V680.824C433.855 678.29 435.507 676.344 435.507 674.748C435.507 673.712 434.961 673.068 433.967 673.068C433.197 673.068 432.595 673.558 432.063 674.146L430.929 673.026C431.881 672.004 432.819 671.458 434.233 671.458C436.179 671.458 437.495 672.704 437.495 674.636C437.495 676.526 435.927 678.542 434.037 680.39C434.555 680.334 435.241 680.264 435.731 680.264H437.971V682H431.027ZM442.827 682.196C440.713 682.196 439.313 680.362 439.313 676.778C439.313 673.208 440.713 671.458 442.827 671.458C444.927 671.458 446.327 673.208 446.327 676.778C446.327 680.362 444.927 682.196 442.827 682.196ZM442.827 680.586C443.723 680.586 444.381 679.69 444.381 676.778C444.381 673.88 443.723 673.04 442.827 673.04C441.931 673.04 441.259 673.88 441.259 676.778C441.259 679.69 441.931 680.586 442.827 680.586ZM447.543 682V680.824C450.371 678.29 452.023 676.344 452.023 674.748C452.023 673.712 451.477 673.068 450.483 673.068C449.713 673.068 449.111 673.558 448.579 674.146L447.445 673.026C448.397 672.004 449.335 671.458 450.749 671.458C452.695 671.458 454.011 672.704 454.011 674.636C454.011 676.526 452.443 678.542 450.553 680.39C451.071 680.334 451.757 680.264 452.247 680.264H454.487V682H447.543ZM455.801 682V680.824C458.629 678.29 460.281 676.344 460.281 674.748C460.281 673.712 459.735 673.068 458.741 673.068C457.971 673.068 457.369 673.558 456.837 674.146L455.703 673.026C456.655 672.004 457.593 671.458 459.007 671.458C460.953 671.458 462.269 672.704 462.269 674.636C462.269 676.526 460.701 678.542 458.811 680.39C459.329 680.334 460.015 680.264 460.505 680.264H462.745V682H455.801Z" fill="#8A8A8A"/>
<path d="M425 168H731.834C734.043 168 735.834 169.791 735.834 172V218C735.834 220.209 734.043 222 731.834 222H425V168Z" fill="#E83015"/>
<path d="M425 286H742.01C744.219 286 746.01 287.791 746.01 290V336C746.01 338.209 744.219 340 742.01 340H425V286Z" fill="#BEBEBE"/>
<path d="M425 404H742.01C744.219 404 746.01 405.791 746.01 408V454C746.01 456.209 744.219 458 742.01 458H425V404Z" fill="#E83015"/>
<path d="M425 522H878C880.209 522 882 523.791 882 526V572C882 574.209 880.209 576 878 576H425V522Z" fill="#BEBEBE"/>
<path d="M754.19 208.42C750.68 208.42 748.31 207.13 746.75 205.33L748.85 202.54C750.17 203.83 751.76 204.85 753.77 204.85C756.05 204.85 757.58 203.71 757.58 201.73C757.58 199.54 756.29 198.19 751.46 198.19V195.01C755.54 195.01 756.86 193.63 756.86 191.65C756.86 189.91 755.78 188.86 753.89 188.86C752.3 188.86 751.01 189.61 749.69 190.84L747.44 188.11C749.36 186.46 751.49 185.41 754.07 185.41C758.36 185.41 761.27 187.51 761.27 191.32C761.27 193.69 759.95 195.46 757.58 196.36V196.51C760.1 197.23 762.02 199.06 762.02 202C762.02 206.08 758.45 208.42 754.19 208.42ZM764.955 208V205.48C771.015 200.05 774.555 195.88 774.555 192.46C774.555 190.24 773.385 188.86 771.255 188.86C769.605 188.86 768.315 189.91 767.175 191.17L764.745 188.77C766.785 186.58 768.795 185.41 771.825 185.41C775.995 185.41 778.815 188.08 778.815 192.22C778.815 196.27 775.455 200.59 771.405 204.55C772.515 204.43 773.985 204.28 775.035 204.28H779.835V208H764.955ZM787.751 199.48C784.571 199.48 782.321 196.84 782.321 192.4C782.321 187.96 784.571 185.41 787.751 185.41C790.931 185.41 793.181 187.96 793.181 192.4C793.181 196.84 790.931 199.48 787.751 199.48ZM787.751 196.99C789.041 196.99 790.031 195.64 790.031 192.4C790.031 189.13 789.041 187.9 787.751 187.9C786.431 187.9 785.441 189.13 785.441 192.4C785.441 195.64 786.431 196.99 787.751 196.99ZM788.471 208.42L800.531 185.41H803.171L791.081 208.42H788.471ZM803.891 208.42C800.741 208.42 798.491 205.81 798.491 201.34C798.491 196.9 800.741 194.32 803.891 194.32C807.041 194.32 809.291 196.9 809.291 201.34C809.291 205.81 807.041 208.42 803.891 208.42ZM803.891 205.93C805.181 205.93 806.201 204.61 806.201 201.34C806.201 198.07 805.181 196.84 803.891 196.84C802.601 196.84 801.581 198.07 801.581 201.34C801.581 204.61 802.601 205.93 803.891 205.93Z" fill="#E83015"/>
<path d="M764.19 444.42C760.68 444.42 758.31 443.13 756.75 441.33L758.85 438.54C760.17 439.83 761.76 440.85 763.77 440.85C766.05 440.85 767.58 439.71 767.58 437.73C767.58 435.54 766.29 434.19 761.46 434.19V431.01C765.54 431.01 766.86 429.63 766.86 427.65C766.86 425.91 765.78 424.86 763.89 424.86C762.3 424.86 761.01 425.61 759.69 426.84L757.44 424.11C759.36 422.46 761.49 421.41 764.07 421.41C768.36 421.41 771.27 423.51 771.27 427.32C771.27 429.69 769.95 431.46 767.58 432.36V432.51C770.1 433.23 772.02 435.06 772.02 438C772.02 442.08 768.45 444.42 764.19 444.42ZM781.885 444.42C778.375 444.42 776.005 443.13 774.445 441.33L776.545 438.54C777.865 439.83 779.455 440.85 781.465 440.85C783.745 440.85 785.275 439.71 785.275 437.73C785.275 435.54 783.985 434.19 779.155 434.19V431.01C783.235 431.01 784.555 429.63 784.555 427.65C784.555 425.91 783.475 424.86 781.585 424.86C779.995 424.86 778.705 425.61 777.385 426.84L775.135 424.11C777.055 422.46 779.185 421.41 781.765 421.41C786.055 421.41 788.965 423.51 788.965 427.32C788.965 429.69 787.645 431.46 785.275 432.36V432.51C787.795 433.23 789.715 435.06 789.715 438C789.715 442.08 786.145 444.42 781.885 444.42ZM797.751 435.48C794.571 435.48 792.321 432.84 792.321 428.4C792.321 423.96 794.571 421.41 797.751 421.41C800.931 421.41 803.181 423.96 803.181 428.4C803.181 432.84 800.931 435.48 797.751 435.48ZM797.751 432.99C799.041 432.99 800.031 431.64 800.031 428.4C800.031 425.13 799.041 423.9 797.751 423.9C796.431 423.9 795.441 425.13 795.441 428.4C795.441 431.64 796.431 432.99 797.751 432.99ZM798.471 444.42L810.531 421.41H813.171L801.081 444.42H798.471ZM813.891 444.42C810.741 444.42 808.491 441.81 808.491 437.34C808.491 432.9 810.741 430.32 813.891 430.32C817.041 430.32 819.291 432.9 819.291 437.34C819.291 441.81 817.041 444.42 813.891 444.42ZM813.891 441.93C815.181 441.93 816.201 440.61 816.201 437.34C816.201 434.07 815.181 432.84 813.891 432.84C812.601 432.84 811.581 434.07 811.581 437.34C811.581 440.61 812.601 441.93 813.891 441.93Z" fill="#E83015"/>
<path d="M764.19 326.42C760.68 326.42 758.31 325.13 756.75 323.33L758.85 320.54C760.17 321.83 761.76 322.85 763.77 322.85C766.05 322.85 767.58 321.71 767.58 319.73C767.58 317.54 766.29 316.19 761.46 316.19V313.01C765.54 313.01 766.86 311.63 766.86 309.65C766.86 307.91 765.78 306.86 763.89 306.86C762.3 306.86 761.01 307.61 759.69 308.84L757.44 306.11C759.36 304.46 761.49 303.41 764.07 303.41C768.36 303.41 771.27 305.51 771.27 309.32C771.27 311.69 769.95 313.46 767.58 314.36V314.51C770.1 315.23 772.02 317.06 772.02 320C772.02 324.08 768.45 326.42 764.19 326.42ZM781.885 326.42C778.375 326.42 776.005 325.13 774.445 323.33L776.545 320.54C777.865 321.83 779.455 322.85 781.465 322.85C783.745 322.85 785.275 321.71 785.275 319.73C785.275 317.54 783.985 316.19 779.155 316.19V313.01C783.235 313.01 784.555 311.63 784.555 309.65C784.555 307.91 783.475 306.86 781.585 306.86C779.995 306.86 778.705 307.61 777.385 308.84L775.135 306.11C777.055 304.46 779.185 303.41 781.765 303.41C786.055 303.41 788.965 305.51 788.965 309.32C788.965 311.69 787.645 313.46 785.275 314.36V314.51C787.795 315.23 789.715 317.06 789.715 320C789.715 324.08 786.145 326.42 781.885 326.42ZM797.751 317.48C794.571 317.48 792.321 314.84 792.321 310.4C792.321 305.96 794.571 303.41 797.751 303.41C800.931 303.41 803.181 305.96 803.181 310.4C803.181 314.84 800.931 317.48 797.751 317.48ZM797.751 314.99C799.041 314.99 800.031 313.64 800.031 310.4C800.031 307.13 799.041 305.9 797.751 305.9C796.431 305.9 795.441 307.13 795.441 310.4C795.441 313.64 796.431 314.99 797.751 314.99ZM798.471 326.42L810.531 303.41H813.171L801.081 326.42H798.471ZM813.891 326.42C810.741 326.42 808.491 323.81 808.491 319.34C808.491 314.9 810.741 312.32 813.891 312.32C817.041 312.32 819.291 314.9 819.291 319.34C819.291 323.81 817.041 326.42 813.891 326.42ZM813.891 323.93C815.181 323.93 816.201 322.61 816.201 319.34C816.201 316.07 815.181 314.84 813.891 314.84C812.601 314.84 811.581 316.07 811.581 319.34C811.581 322.61 812.601 323.93 813.891 323.93Z" fill="#8A8A8A"/>
<path d="M902.08 562V548.35C902.08 547.06 902.2 545.05 902.26 543.73H902.14C901.57 544.93 900.97 546.16 900.34 547.36L896.92 552.88H908.83V556.27H892.63V553.24L900.88 539.8H906.19V562H902.08ZM915.245 562C915.665 554.32 916.925 549.37 921.185 543.49H911.195V539.8H925.925V542.47C920.765 548.77 920.105 553.33 919.715 562H915.245ZM933.751 553.48C930.571 553.48 928.321 550.84 928.321 546.4C928.321 541.96 930.571 539.41 933.751 539.41C936.931 539.41 939.181 541.96 939.181 546.4C939.181 550.84 936.931 553.48 933.751 553.48ZM933.751 550.99C935.041 550.99 936.031 549.64 936.031 546.4C936.031 543.13 935.041 541.9 933.751 541.9C932.431 541.9 931.441 543.13 931.441 546.4C931.441 549.64 932.431 550.99 933.751 550.99ZM934.471 562.42L946.531 539.41H949.171L937.081 562.42H934.471ZM949.891 562.42C946.741 562.42 944.491 559.81 944.491 555.34C944.491 550.9 946.741 548.32 949.891 548.32C953.041 548.32 955.291 550.9 955.291 555.34C955.291 559.81 953.041 562.42 949.891 562.42ZM949.891 559.93C951.181 559.93 952.201 558.61 952.201 555.34C952.201 552.07 951.181 550.84 949.891 550.84C948.601 550.84 947.581 552.07 947.581 555.34C947.581 558.61 948.601 559.93 949.891 559.93Z" fill="#8A8A8A"/>
</svg>
