<svg width="549" height="183" viewBox="0 0 549 183" fill="none" xmlns="http://www.w3.org/2000/svg">
<g clip-path="url(#clip0_511_3067)">
<path d="M56.6219 12.5645V12.5661L12.1074 38.2669L56.6219 63.9677V63.9673L101.139 38.2644L56.6219 12.5645Z" fill="white"/>
<path d="M145.655 65.3856L99.9127 38.9726L56.6245 63.6376L10.5952 37.0625V88.463V91.0847V141.221L56.6233 168.19V116.788L145.655 65.3856Z" fill="#E83015"/>
<path d="M101.14 91.0847L101.139 38.2637L56.6221 63.6368L56.6233 116.787L101.14 142.488L145.655 116.787V65.3848L101.14 91.0847Z" fill="#A91D00"/>
<path d="M56.6246 44.6071C62.4496 44.6071 67.1716 41.8807 67.1716 38.5174C67.1716 35.1542 62.4496 32.4277 56.6246 32.4277C50.7997 32.4277 46.0776 35.1542 46.0776 38.5174C46.0776 41.8807 50.7997 44.6071 56.6246 44.6071Z" fill="#E83015"/>
<path d="M118.164 69.2681C123.021 69.2681 126.958 66.9949 126.958 64.1907C126.958 61.3865 123.021 59.1133 118.164 59.1133C113.307 59.1133 109.37 61.3865 109.37 64.1907C109.37 66.9949 113.307 69.2681 118.164 69.2681Z" fill="white"/>
<path d="M56.6234 116.786V116.788L54.6053 66.5488L14.127 141.321L56.6234 168.19V168.189L101.14 142.486L56.6234 116.786Z" fill="white"/>
<path d="M99.1206 141.32L58.6423 66.5488L56.6245 116.787L99.1206 141.32Z" fill="#CCCCCC"/>
<path d="M56.6235 168.19V168.19L101.141 142.487L56.6235 116.787V116.789" fill="#CCCCCC"/>
<path d="M56.6233 0L0 32.6919V149.477L56.6229 182.172L157.764 123.778V58.3937L56.6233 0ZM14.1269 141.321V94.5798L28.5744 102.922L54.6051 117.952V164.693L14.1269 141.321ZM54.6051 113.291L29.7079 98.9152L14.1269 89.9187V43.1791L54.6051 66.5494V113.291ZM103.159 92.2502L143.637 68.8804V115.621L103.159 138.993V92.2502ZM71.4985 105.868L58.6414 113.291L58.6424 66.5499L99.1226 43.1781V89.9176L71.4985 105.868ZM99.1207 94.5806V141.321L58.6425 164.693V117.952L73.7017 109.257L99.1207 94.5806ZM103.159 87.5894V40.8497L143.637 64.2199L103.159 87.5894ZM56.6233 13.9822L99.1204 38.518L56.6233 63.0536L14.1269 38.5178L56.6233 13.9822Z" fill="#383838"/>
<path d="M308.637 40.207H288.284V60.5598H308.637V40.207Z" fill="#E83015"/>
<path d="M349.342 40.207H308.637V60.5599H349.342V40.207Z" fill="#383838"/>
<path d="M364.607 40.207H354.43V60.5599H364.607V40.207Z" fill="#383838"/>
<path d="M379.871 40.207H369.695V60.5599H379.871V40.207Z" fill="#383838"/>
<path d="M344.254 121.619H288.284V141.971H364.607V101.266H344.254V121.619Z" fill="#383838"/>
<path d="M273.019 101.266H252.667V121.618H273.019V101.266Z" fill="#E83015"/>
<path d="M227.225 121.618L217.049 111.442V40.207H196.696V121.618L217.049 141.971H273.019V121.618H227.225Z" fill="#383838"/>
<path d="M410.401 121.617H390.048V141.97H410.401V121.617Z" fill="#E83015"/>
<path d="M420.388 80.9127L461.283 40.207H390.048V60.5599H412.145L391.793 80.9127V101.265H440.93V121.618H410.401V141.971H461.283V80.9127H420.388Z" fill="#383838"/>
<path d="M499.444 89.3656L548.603 40.207H519.797L479.091 80.9127V101.265L519.797 141.971H548.603L499.444 92.8123V89.3656Z" fill="#383838"/>
<path d="M505.445 54.5596H534.251L548.603 40.207H519.797L505.445 54.5596Z" fill="#E83015"/>
</g>
<defs>
<clipPath id="clip0_511_3067">
<rect width="548.603" height="182.172" fill="white"/>
</clipPath>
</defs>
</svg>
