<svg width="800" height="500" viewBox="0 0 800 500" fill="none" xmlns="http://www.w3.org/2000/svg">
<g clip-path="url(#clip0_509_799)">
<rect width="800" height="500" fill="white"/>
<path d="M0 469.239V278.242C23.1773 279.087 45.3454 284.261 62.4099 299.366C85.2294 319.565 92.1977 354.024 83.904 383.347C75.6103 412.669 54.0278 436.923 28.5629 453.666C19.4706 459.644 9.8915 464.755 0 469.239Z" fill="#FF6852"/>
<path d="M799.656 189.314C787.558 177.256 779.636 160.979 778.016 143.955C777.113 134.456 777.925 124.286 773.163 116.014C766.609 104.623 752.968 101.643 739.155 101.643C734.277 101.643 729.379 102.015 724.764 102.52C717.784 103.282 710.379 103.84 703.003 103.84C681.892 103.84 661.011 99.2701 650.985 81.8564C641.807 65.9212 646.295 46.0137 644.883 27.6803C644.129 17.9436 641.346 8.5959 637 0L799.656 0.0395514V189.314Z" fill="#A91D00"/>
<path d="M0 117.893C10.9079 123.985 23.4761 127.462 36.8581 127.462C78.6626 127.462 112.552 93.5793 112.552 51.7831C112.552 31.7497 104.763 13.5376 92.0516 0H0V117.893Z" fill="#E83015"/>
<path d="M548.83 69.766C548.83 96.4008 527.235 117.992 500.593 117.992C473.951 117.992 452.359 96.4008 452.359 69.766C452.359 43.1311 473.954 21.5391 500.593 21.5391C527.232 21.5391 548.83 43.1308 548.83 69.766Z" fill="#9D3330"/>
<path d="M772.471 451.772C772.471 478.409 750.876 500 724.237 500C697.598 500 676 478.409 676 451.772C676 425.135 697.598 403.547 724.237 403.547C750.876 403.547 772.471 425.138 772.471 451.772Z" fill="#E83015"/>
<path d="M772.429 449.688C771.406 425.678 752.825 406.21 729.197 403.798C735.384 394.478 746.748 388.23 759.746 388.23C779.357 388.23 795.255 402.457 795.255 420.002C795.255 433.552 785.775 445.119 772.429 449.688Z" fill="#FF6852"/>
<path d="M449.988 417.111C468.988 428.08 468.988 445.862 449.988 456.828C430.988 467.797 400.182 467.797 381.182 456.828C362.182 445.862 362.182 428.08 381.182 417.114C400.182 406.145 430.988 406.145 449.988 417.111Z" fill="#F4F4F4"/>
<path d="M345.429 372.735C364.429 383.701 364.429 401.483 345.429 412.452C326.431 423.418 295.626 423.418 276.626 412.452C257.627 401.483 257.627 383.701 276.626 372.735C295.626 361.766 326.431 361.766 345.429 372.735Z" fill="#F4F4F4"/>
<path d="M403.001 299.473C416.421 307.221 416.421 319.783 403.001 327.53C389.578 335.278 367.817 335.278 354.393 327.53C340.971 319.783 340.971 307.221 354.393 299.473C367.817 291.725 389.578 291.725 403.001 299.473Z" fill="#F4F4F4"/>
<path d="M406.34 259.917L407.262 261.21C413.027 269.297 420.445 276.07 429.02 281.082L610.039 386.87L669.251 362.106L443.762 249.48L406.34 259.917Z" fill="#F4F4F4"/>
<path d="M408.912 82.355L606.824 196.564C610.342 198.594 612.511 202.347 612.508 206.408L612.488 370.87C612.488 373.088 610.088 374.474 608.165 373.367L410.273 259.144C406.756 257.114 404.589 253.362 404.589 249.302V84.8502C404.589 82.6323 406.99 81.2464 408.912 82.355Z" fill="#D2D2D2"/>
<path d="M406.44 84.0073L604.355 198.216C607.873 200.246 610.039 203.999 610.039 208.06L610.02 372.523C610.02 374.741 607.616 376.127 605.697 375.02L407.804 260.796C404.287 258.767 402.121 255.014 402.121 250.954V86.5022C402.121 84.2847 404.521 82.8987 406.44 84.0073Z" fill="#F7F7F7"/>
<path d="M601.728 358.287C601.459 358.287 601.186 358.219 600.939 358.076L416.256 251.504C415.106 250.841 414.395 249.607 414.395 248.284V105.514C414.395 104.639 415.103 103.93 415.979 103.93C416.853 103.93 417.564 104.639 417.564 105.514V248.284C417.564 248.48 417.668 248.662 417.841 248.761L602.521 355.332C603.281 355.767 603.537 356.738 603.102 357.495C602.81 358.002 602.274 358.287 601.728 358.287Z" fill="#EB6061"/>
<path d="M353.458 19.1573L439.932 69.0688C443.411 71.0772 445.554 74.7888 445.554 78.8057V162.631C445.554 165.157 442.816 166.736 440.631 165.472L354.153 115.525C350.678 113.516 348.534 109.806 348.534 105.79V21.9991C348.534 19.4733 351.269 17.8946 353.458 19.1573Z" fill="#D2D2D2"/>
<path d="M351.603 20.3546L438.078 70.2663C441.556 72.2744 443.7 75.9863 443.7 80.0032V163.828C443.7 166.354 440.965 167.933 438.776 166.669L352.298 116.723C348.823 114.714 346.68 111.003 346.68 106.987V23.1964C346.68 20.6705 349.414 19.0917 351.603 20.3546Z" fill="#FDFDFD"/>
<path d="M363.253 59.2109L371.402 63.9152V115.923L363.253 111.219V59.2109Z" fill="#CCCCCC"/>
<path d="M377.184 83.2676L385.336 87.9719V123.964L377.184 119.26V83.2676Z" fill="#E83015"/>
<path d="M391.114 100.746L399.266 105.45V132.005L391.114 127.3V100.746Z" fill="#CCCCCC"/>
<path d="M405.044 89.1934L413.196 93.8977V140.046L405.044 135.342V89.1934Z" fill="#E83015"/>
<path d="M418.974 71.3984L427.126 76.1027V148.088L418.974 143.384V71.3984Z" fill="#CCCCCC"/>
<path d="M208.08 241.526L221.94 249.525L235.8 241.48L221.94 233.525L208.08 241.526Z" fill="#E4E4E4"/>
<path d="M235.777 257.436L249.637 265.435L263.497 257.39L249.637 249.436L235.777 257.436Z" fill="#EB6061"/>
<path d="M263.526 257.524L277.386 265.523L291.247 257.478L277.386 249.523L263.526 257.524Z" fill="#E4E4E4"/>
<path d="M291.244 217.475L305.104 225.474L318.965 217.429L305.104 209.475L291.244 217.475Z" fill="#EB6061"/>
<path d="M318.918 169.64L332.847 177.519L346.638 169.354L332.708 161.52L318.918 169.64Z" fill="#E4E4E4"/>
<path d="M208.08 241.525L221.94 249.525V329.527L208.08 321.527V241.525Z" fill="#CCCCCC"/>
<path d="M235.8 241.479V321.48L221.94 329.526V249.524L235.8 241.479Z" fill="#A2A2A2"/>
<path d="M235.777 257.436L249.637 265.435L249.699 313.501L235.839 305.502L235.777 257.436Z" fill="#E83015"/>
<path d="M263.526 257.523L263.559 305.456L249.699 313.501L249.637 265.435L263.526 257.523Z" fill="#A91D00"/>
<path d="M263.526 257.523L277.386 265.523L277.448 297.555L263.588 289.556L263.526 257.523Z" fill="#CCCCCC"/>
<path d="M291.246 257.477L291.309 289.51L277.448 297.555L277.386 265.522L291.246 257.477Z" fill="#A2A2A2"/>
<path d="M305.104 225.474L305.166 281.539L291.307 273.54L291.244 217.475L305.104 225.474Z" fill="#E83015"/>
<path d="M318.965 217.428L319.027 273.493L305.166 281.538L305.104 225.473L318.965 217.428Z" fill="#A91D00"/>
<path d="M332.777 177.519L332.839 265.522L318.979 257.523L318.917 169.52L332.777 177.519Z" fill="#CCCCCC"/>
<path d="M346.638 169.475L346.699 257.478L332.839 265.523L332.777 177.52L346.638 169.475Z" fill="#A2A2A2"/>
<path d="M146.049 365.807L166.502 377.62L186.968 365.807V362.862L166.502 351.055L146.049 362.862V365.807Z" fill="#E0DFE0"/>
<path d="M146.049 362.862L166.502 374.675L186.968 362.862L166.502 351.055L146.049 362.862Z" fill="#FCFDFD"/>
<path d="M140.924 339.24V333.343L166.5 318.578L192.076 333.339V339.236L166.5 354.002L140.924 339.24Z" fill="#CCCCCC"/>
<path d="M140.924 333.343L166.5 318.578L192.076 333.339L166.5 348.105L140.924 333.343Z" fill="#E4E4E4"/>
<path d="M186.417 333.341L185.403 333.925L166.5 344.836L147.6 333.925L146.586 333.341L166.5 321.844L186.417 333.341Z" fill="#D8D8D8"/>
<path d="M185.403 333.926L176.361 339.145L166.5 344.837L161.46 341.924L147.6 333.926L161.889 325.675L166.5 323.014L175.316 328.104L185.403 333.926Z" fill="#3D2088"/>
<path d="M146.039 342.201L151.163 362.86L166.508 371.719L166.5 354.002L146.039 342.201Z" fill="#CCCCCC"/>
<path d="M166.5 354.002L186.944 342.201L181.845 362.857L166.508 371.719L166.5 354.002Z" fill="#A1A1A1"/>
<path d="M161.385 333.342C161.385 333.342 153.072 268.605 166.495 265.435C179.919 262.265 176.361 339.145 176.361 339.145L166.499 344.837L161.46 341.924L161.385 333.342Z" fill="#E83015"/>
<path d="M161.46 341.924L147.6 333.926C147.6 333.926 136.97 294.289 151.162 292.001C159.912 290.591 161.76 310.329 161.889 325.675C161.951 333.056 161.616 339.42 161.46 341.924Z" fill="#EB6061"/>
<path d="M185.404 333.926L176.361 339.145C176.077 336.612 175.671 332.689 175.316 328.104C173.999 311.187 173.34 285.178 181.853 286.094C194.435 287.454 185.404 333.926 185.404 333.926Z" fill="#EB6061"/>
<path d="M477.894 141.066L594.278 208.271C595.876 209.193 597.873 208.04 597.873 206.196V103.843C597.873 100.44 596.054 97.2956 593.108 95.594L476.724 28.4201C475.13 27.4983 473.132 28.6507 473.132 30.4945V132.818C473.132 136.22 474.948 139.364 477.894 141.066Z" fill="#E84F48"/>
<path d="M476.182 142.019L592.566 209.224C594.164 210.146 596.158 208.993 596.158 207.15V104.796C596.158 101.393 594.342 98.2488 591.396 96.5473L475.012 29.3733C473.415 28.4514 471.42 29.6038 471.42 31.4477V133.771C471.42 137.174 473.236 140.317 476.182 142.019Z" fill="#FDFDFD"/>
<path d="M563.085 136.612C563.085 155.734 549.655 163.485 533.094 153.923C516.53 144.362 503.1 121.11 503.1 101.987C503.1 82.8649 516.53 75.1141 533.094 84.6756C549.655 94.2368 563.085 117.489 563.085 136.612Z" fill="#E83015"/>
<path d="M557.417 133.339C557.417 148.848 546.527 155.134 533.094 147.379C519.658 139.625 508.768 120.767 508.768 105.258C508.768 89.7493 519.658 83.4636 533.094 91.218C546.527 98.9724 557.417 117.83 557.417 133.339Z" fill="#FBFCFC"/>
<path d="M526.215 128.635L544.543 126.999C545.28 126.933 545.28 125.705 544.543 124.788L526.215 101.994C525.478 101.078 524.559 101.16 524.559 102.142V126.572C524.559 127.555 525.478 128.701 526.215 128.635Z" fill="#EB6061"/>
<path d="M533.094 152.326C517.32 143.22 504.484 120.996 504.484 102.785C504.484 101.055 504.601 99.3877 504.831 97.8306C504.948 97.0341 505.647 96.849 506.4 97.4169C507.15 97.9852 507.66 99.0906 507.543 99.8868C507.332 101.295 507.228 102.803 507.228 104.369C507.228 120.833 518.83 140.926 533.094 149.158C547.356 157.391 558.957 150.693 558.957 134.228C558.957 117.764 547.356 97.6715 533.094 89.4392C532.334 89.0017 531.721 87.9383 531.721 87.0631C531.721 86.188 532.334 85.8341 533.094 86.2714C548.866 95.377 561.701 117.601 561.701 135.812C561.701 154.024 548.866 161.432 533.094 152.326Z" fill="#EB6061"/>
<path d="M324.161 376.539C324.464 376.627 326.063 377.965 327.619 377.491C329.175 377.016 329.564 376.916 329.694 377.591C329.823 378.27 328.224 381.209 326.149 381.079C324.075 380.949 323.858 384.19 321.697 384.19C320.487 384.19 320.184 383.716 320.184 383.716L319.752 378.484L324.161 376.539Z" fill="#383838"/>
<path d="M325.023 376.758C325.023 376.758 323.386 380.372 319.754 380.441C319.216 380.45 318.645 380.382 318.023 380.22C318.023 380.22 311.883 362.844 311.022 362.24C310.153 361.636 297.448 378.72 297.448 378.72C297.448 378.72 296.808 379.061 295.785 379.434C291.982 380.84 282.85 382.727 281.631 369.238C281.631 369.238 309.462 344.695 312.403 345.471C315.345 346.247 325.023 376.758 325.023 376.758Z" fill="#383838"/>
<path d="M319.754 380.44C319.216 380.45 318.645 380.382 318.022 380.219C318.022 380.219 311.883 362.843 311.022 362.239C310.153 361.635 297.448 378.719 297.448 378.719C297.448 378.719 296.808 379.06 295.785 379.434C292.408 377.167 290.55 373.988 292.571 369.588C292.571 369.588 302.734 361.752 306.711 358.391C309.181 356.304 311.028 356.943 312.182 359.642C314.273 364.535 318.261 379.46 319.754 380.44Z" fill="#383838"/>
<path d="M303.327 378.715C303.327 378.715 318.285 384.407 319.284 384.924C320.283 385.443 306.064 405.394 296.958 399.861C287.852 394.331 303.327 378.715 303.327 378.715Z" fill="#A91D00"/>
<path d="M341.537 384.623C341.537 384.623 344.793 385.86 346.29 385.344C347.791 384.824 347.992 384.535 348.366 384.737C348.742 384.941 348.655 388.052 345.657 389.03C342.661 390.01 343.067 393.007 340.413 393.007C338.915 393.007 338.396 392.488 338.396 392.488L337.82 385.344L341.537 384.623Z" fill="#383838"/>
<path d="M342.144 384.532C342.144 384.532 341.224 388.224 337.182 387.532C337.182 387.532 336.312 386.136 335.059 384.191L335.042 384.158C332.356 380.015 327.913 373.423 326.353 372.647C324.042 371.514 299.264 393.527 292.519 395.777C291.232 396.202 290.081 396.397 289.024 396.417C283.157 396.517 280.574 391.198 277.939 390.413C274.826 389.494 272.294 390.643 270.333 388.802C268.372 386.954 265.609 374.875 265.609 374.875L291.999 373.816C291.999 373.816 325.662 357.918 329.005 357.687C332.347 357.456 342.144 384.532 342.144 384.532Z" fill="#383838"/>
<path d="M335.042 384.158C332.356 380.015 327.914 373.423 326.353 372.647C324.043 371.513 299.264 393.526 292.52 395.777C291.232 396.202 290.081 396.397 289.024 396.417C286.091 384.652 285.878 376.193 291.735 374.874C291.735 374.874 292.724 386.409 295.845 388.811C298.966 391.224 322.687 369.477 326.012 371.02C329.244 372.52 334.701 383.473 335.042 384.158Z" fill="#383838"/>
<path d="M292.341 323.662C292.341 323.662 291.028 323.449 290.167 324.788C289.297 326.126 288.24 328.026 288.24 328.026L287.481 327.558L282.339 324.404L285.775 320.363L289.015 319.715L289.996 319.52C289.996 319.52 291.283 320.806 291.957 322.077C292.264 322.648 292.443 323.219 292.341 323.662Z" fill="#F5C8AA"/>
<path d="M292.34 323.663C292.34 323.663 291.027 323.45 290.166 324.789C289.297 326.127 288.239 328.026 288.239 328.026L287.48 327.559L286.79 326.51C286.79 326.51 289.8 324.243 290.465 323.39C291.13 322.538 290.746 321.992 290.746 321.992L291.957 322.078C292.264 322.648 292.443 323.22 292.34 323.663Z" fill="#E9AA94"/>
<path d="M280.976 325.273C280.976 325.273 282.267 323.249 282.666 323.401C283.064 323.552 288.66 327.231 288.977 327.693C289.294 328.154 288.544 329.625 288.544 329.625L280.976 325.273Z" fill="#CF241B"/>
<path d="M291.887 371.023C291.887 371.023 294.019 374.826 293.99 375.086C293.962 375.346 289.495 378.716 289.495 378.716L285.749 372.725L291.887 371.023Z" fill="#383838"/>
<path d="M293.449 370.935C292.691 373.354 284.914 376.757 284.914 376.757L282.987 373.595L264.8 343.739C264.8 343.739 269.199 328.172 276.328 324.609C277.999 323.774 281.196 323.134 285.017 326.049C288.836 328.958 293.389 333.024 293.441 335.034C293.466 335.956 293.253 339.323 293.006 342.98C292.716 347.363 292.383 352.147 292.375 353.653C292.349 356.417 294.199 368.513 293.449 370.935Z" fill="#E73039"/>
<path d="M316.726 329.868C316.683 329.738 315.819 324.12 315.905 322.997C315.991 321.873 317.418 317.248 317.893 317.595C318.369 317.94 317.461 321.397 318.282 322.435C319.104 323.472 321.308 324.899 321.654 325.935C322 326.971 320.184 332.547 320.184 332.547L316.726 329.868Z" fill="#F5C8AA"/>
<path d="M293.449 370.935C292.69 373.354 284.914 376.757 284.914 376.757L282.987 373.595C285.946 369.63 289.757 362.674 285.75 356.995C279.21 347.747 284.479 339.154 284.479 339.154C284.479 339.154 288.828 341.096 293.006 342.98C292.716 347.363 292.383 352.147 292.375 353.653C292.349 356.417 294.199 368.513 293.449 370.935Z" fill="#E1122F"/>
<path d="M314.997 333.586C315.083 333.369 316.199 329.193 316.636 329.336C317.072 329.479 321.221 332.375 321.265 332.807C321.308 333.239 319.622 336.609 319.622 336.609L314.997 333.586Z" fill="#383838"/>
<path d="M317.893 333.54C319.466 334.242 320.616 336.479 320.4 337.518C320.4 337.518 310.848 357.742 309.681 358.651C308.513 359.557 287.333 353.248 285.432 352.212C283.53 351.173 281.14 343.396 285.015 338.382C288.89 333.368 292.387 333.56 293.275 334.329C294.163 335.096 304.276 348.786 306.654 348.64C309.032 348.494 313.96 333.54 313.96 333.54C313.96 333.54 315.948 332.676 317.893 333.54Z" fill="#EB6061"/>
<path d="M324.725 404.242C322.124 409.373 309.01 416.731 296.501 420.021C290.499 421.599 284.633 422.245 280.139 421.264C261.483 417.183 252.931 407.012 249.639 400.79C246.16 394.182 247.917 359.518 252.751 350.328C257.595 341.148 260.366 339.768 267.102 340.976C269.293 341.369 271.519 342.35 273.676 343.74L273.693 343.749H273.701C281.017 348.455 287.497 357.839 288.742 364.83C290.345 373.884 292.349 393.065 298.224 393.637C304.107 394.215 310.281 385.701 316.727 384.626C323.164 383.541 328.579 396.637 324.725 404.242Z" fill="#E83015"/>
<path d="M293.688 320.338C293.662 320.662 293.961 322.367 292.972 323.799C292.733 324.14 291.07 322.972 290.277 321.096C290.277 321.096 288.487 322.248 287.352 320.312C286.747 319.281 287.617 317.064 288.154 315.394C288.231 315.163 288.316 314.95 288.41 314.745C289.578 312.384 292.383 311.421 292.733 313.705C292.741 313.748 292.818 314.669 292.946 315.632C293.074 316.612 293.244 317.644 293.432 317.857C293.798 318.266 294.617 318.761 294.643 319.017C294.66 319.281 293.713 320.014 293.688 320.338Z" fill="#F5C8AA"/>
<path d="M292.946 315.632C290.414 316.254 289.322 318.522 289.322 318.522C289.322 318.522 288.828 316.476 288.41 314.745C289.578 312.384 292.383 311.421 292.733 313.705C292.741 313.748 292.818 314.669 292.946 315.632Z" fill="#E9AA94"/>
<path d="M289.322 318.523C289.322 318.523 288.894 317.27 287.941 317.853C286.988 318.436 287.701 321.548 290.273 321.094L287.744 323.406C287.744 323.406 286.166 323.817 285.475 323.169C284.784 322.52 284.109 323.113 283.679 322.827C283.249 322.542 279.078 320.014 282.017 314.18C284.956 308.345 289.927 309.858 290.273 309.728C290.619 309.599 291.83 305.666 294.639 306.141C297.448 306.617 297.317 314.199 292.65 314.818C289.97 315.174 289.322 318.523 289.322 318.523Z" fill="#383838"/>
<path d="M296.501 420.021C290.499 421.599 284.633 422.245 280.139 421.264C261.483 417.183 252.931 407.012 249.639 400.79C246.16 394.182 247.917 359.518 252.751 350.328C257.595 341.148 260.366 339.768 267.102 340.976C269.293 341.369 271.519 342.35 273.676 343.74C273.028 343.519 257.637 338.489 254.985 360.2C252.282 382.375 260.792 418.241 296.501 420.021Z" fill="#A91D00"/>
<path d="M423.381 427.836C423.709 427.93 425.444 429.385 427.129 428.869C428.818 428.352 429.24 428.245 429.38 428.979C429.52 429.713 427.785 432.898 425.538 432.755C423.287 432.616 423.053 436.129 420.711 436.129C419.399 436.129 419.071 435.613 419.071 435.613L418.604 429.947L423.381 427.836Z" fill="#383838"/>
<path d="M424.32 428.07C424.32 428.07 423.027 430.908 420.228 431.804H420.218C419.237 432.109 418.081 432.181 416.733 431.82C416.733 431.82 410.078 412.986 409.133 412.33C408.201 411.674 394.427 430.193 394.427 430.193C394.427 430.193 392.137 431.424 389.214 431.875C384.556 432.59 378.317 431.333 377.271 419.919C377.271 419.919 407.451 393.311 410.64 394.152C413.82 394.993 424.32 428.07 424.32 428.07Z" fill="#383838"/>
<path d="M420.244 431.784L420.228 431.804H420.218C419.237 432.109 418.081 432.181 416.733 431.82C416.733 431.82 410.078 412.986 409.133 412.33C408.201 411.674 394.427 430.193 394.427 430.193C394.427 430.193 392.137 431.424 389.214 431.875C385.823 429.112 384.371 425.998 387.827 422.923C387.827 422.923 408.561 404.004 409.744 404.995C410.936 405.982 416.928 431.719 420.244 431.784Z" fill="#383838"/>
<path d="M400.799 430.197C400.799 430.197 417.012 436.367 418.097 436.926C419.179 437.487 403.764 459.117 393.894 453.12C384.024 447.125 400.799 430.197 400.799 430.197Z" fill="#A91D00"/>
<path d="M442.219 436.598C442.219 436.598 445.75 437.942 447.373 437.38C448.997 436.818 449.215 436.503 449.621 436.724C450.027 436.942 449.936 440.316 446.685 441.378C443.437 442.44 443.879 445.687 441.001 445.687C439.377 445.687 438.815 445.125 438.815 445.125L438.188 437.38L442.219 436.598Z" fill="#383838"/>
<path d="M442.872 436.506C442.872 436.506 441.875 440.5 437.503 439.75C437.503 439.75 436.558 438.234 435.2 436.13L435.181 436.091C432.261 431.6 427.454 424.456 425.752 423.625C423.258 422.387 396.398 446.248 389.087 448.687C388.662 448.826 388.236 448.947 387.837 449.037C379.639 451.009 376.495 443.826 373.28 442.874C369.905 441.877 367.151 443.124 365.027 441.127C362.91 439.133 359.905 426.028 359.905 426.028L388.522 424.891C388.522 424.891 425.005 407.645 428.627 407.398C432.251 407.148 442.872 436.506 442.872 436.506Z" fill="#383838"/>
<path d="M435.181 436.091C432.261 431.6 427.454 424.456 425.752 423.625C423.258 422.387 396.398 446.248 389.087 448.687C388.662 448.827 388.236 448.947 387.837 449.038C385.368 439.945 386.97 427.249 386.97 427.249C386.97 427.249 389.919 438.789 396.148 439.871C399.688 440.481 422.027 419.559 426.032 421.858C429.903 424.086 434.876 435.389 435.181 436.091Z" fill="#383838"/>
<path d="M388.892 370.512C388.892 370.512 387.47 370.282 386.525 371.733C385.593 373.195 384.446 375.253 384.446 375.253L383.03 374.386L378.048 371.318L381.773 366.937L385.287 366.236L386.34 366.021C386.34 366.021 387.476 367.158 388.236 368.398C388.707 369.136 389.029 369.921 388.892 370.512Z" fill="#F5C8AA"/>
<path d="M388.892 370.513C388.892 370.513 387.47 370.282 386.525 371.734C385.593 373.195 384.446 375.254 384.446 375.254L383.03 374.387C382.773 373.932 382.588 373.601 382.588 373.601C382.588 373.601 386.129 371.484 386.931 370.402C387.736 369.321 386.931 368.324 386.931 368.324C386.931 368.324 387.506 368.35 388.236 368.399C388.707 369.136 389.029 369.922 388.892 370.513Z" fill="#E9AA94"/>
<path d="M376.566 372.261C376.566 372.261 377.966 370.069 378.398 370.231C378.83 370.397 384.897 374.384 385.241 374.885C385.586 375.385 384.771 376.979 384.771 376.979L376.566 372.261Z" fill="#383838"/>
<path d="M388.395 421.859C388.395 421.859 390.708 425.98 390.675 426.263C390.646 426.542 385.804 430.198 385.804 430.198L381.744 423.701L388.395 421.859Z" fill="#383838"/>
<path d="M390.084 421.767C389.509 423.615 385.122 425.999 382.608 427.249C381.562 427.755 380.841 428.07 380.841 428.07L359.035 392.279C359.035 392.279 363.796 375.403 371.523 371.539C373.335 370.633 376.755 370.117 380.941 373.101C385.186 376.115 390.019 380.661 390.084 382.853C390.12 384.064 389.769 389.181 389.438 394.033C389.178 397.952 388.928 401.687 388.918 403.024C388.892 406.022 390.896 419.144 390.084 421.767Z" fill="#EB6061"/>
<path d="M415.323 377.242C415.275 377.102 414.339 371.014 414.433 369.793C414.528 368.575 416.074 363.564 416.587 363.938C417.103 364.314 416.119 368.062 417.009 369.185C417.899 370.309 420.289 371.855 420.666 372.978C421.04 374.105 419.071 380.148 419.071 380.148L415.323 377.242Z" fill="#F5C8AA"/>
<path d="M413.449 381.271C413.543 381.037 414.752 376.51 415.226 376.666C415.697 376.819 420.195 379.959 420.244 380.426C420.289 380.897 418.461 384.55 418.461 384.55L413.449 381.271Z" fill="#383838"/>
<path d="M390.084 421.767C389.509 423.615 385.122 425.998 382.608 427.248C383.384 424.807 384.167 421.738 384.29 418.763C384.547 412.305 378.512 405.722 377.967 398.049C377.275 388.35 382.484 384.703 382.484 384.703L389.438 394.032C389.178 397.952 388.928 401.686 388.918 403.024C388.892 406.021 390.896 419.143 390.084 421.767Z" fill="#A91D00"/>
<path d="M416.587 381.226C418.292 381.982 419.539 384.411 419.305 385.535C419.305 385.535 408.951 407.46 407.685 408.444C406.421 409.428 383.462 402.586 381.4 401.462C379.337 400.339 376.745 391.906 380.948 386.47C385.148 381.037 388.938 381.245 389.903 382.08C390.864 382.911 401.825 397.748 404.404 397.592C406.983 397.433 412.326 381.226 412.326 381.226C412.326 381.226 414.479 380.287 416.587 381.226Z" fill="#EB6061"/>
<path d="M423.999 457.864C421.446 462.91 409.559 469.915 397.275 473.844C389.464 476.338 381.487 477.594 375.654 476.321C355.43 471.892 346.16 460.868 342.602 454.123C338.821 446.96 340.725 409.383 345.975 399.423C351.227 389.467 354.221 387.97 361.532 389.286C362.224 389.406 362.926 389.588 363.63 389.821C373.436 393.026 383.364 405.983 384.982 415.14C386.729 424.957 388.892 445.749 395.268 446.379C401.637 446.996 408.341 437.764 415.327 436.601C422.306 435.426 428.165 449.623 423.999 457.864Z" fill="#E83015"/>
<path d="M390.35 366.912C390.324 367.263 390.639 369.111 389.574 370.663C389.317 371.033 387.515 369.767 386.645 367.734C386.645 367.734 384.712 368.981 383.484 366.893C382.828 365.766 383.76 363.37 384.352 361.551C384.761 360.275 385.618 359.278 386.515 358.752V358.742C387.765 358.002 389.067 358.158 389.317 359.72C389.327 359.749 389.353 360.08 389.399 360.551C389.428 360.84 389.464 361.181 389.509 361.541C389.649 362.678 389.844 363.98 390.065 364.22C390.464 364.665 391.36 365.201 391.377 365.487C391.406 365.766 390.37 366.558 390.35 366.912Z" fill="#F5C8AA"/>
<path d="M389.51 361.541C389.328 362.418 388.633 363.529 387.496 363.584C385.823 363.675 386.008 365.061 386.008 365.061C384.667 363.454 386.405 359.018 386.515 358.752V358.742C386.515 358.742 388.902 359.979 389.399 360.551C389.428 360.84 389.464 361.181 389.51 361.541Z" fill="#E9AA94"/>
<path d="M386.008 365.058C385.95 364.945 385.716 364.149 385.024 364.519C384.131 365.003 384.254 368.588 386.648 367.734C386.648 367.734 385.69 369.017 385.112 369.247C384.534 369.478 382.211 367.523 380.948 367.909C380.948 367.909 377.401 363.24 376.823 361.275C376.245 359.314 379.236 353.426 384.68 353.595C390.279 353.767 391.033 357.986 390.744 359.775C390.455 361.564 389.86 363.675 389.86 363.675L388.434 359.833C388.434 359.833 389.464 362.369 386.989 363.298C386.067 363.645 386.008 365.058 386.008 365.058Z" fill="#383838"/>
<path d="M397.275 473.834V473.844C389.464 476.338 381.487 477.594 375.654 476.321C355.43 471.892 346.16 460.868 342.602 454.123C338.821 446.96 340.725 409.383 345.975 399.423C351.227 389.467 354.221 387.97 361.532 389.286C362.224 389.406 362.926 389.588 363.63 389.821L363.64 389.828C363.64 389.828 351.854 390.032 349.775 400.44C347.693 410.834 343.239 443.817 356.706 459.351C370.185 474.886 397.275 473.834 397.275 473.834Z" fill="#A91D00"/>
<path d="M515.825 482.078L600.929 432.746L567.106 412.961L481.563 462.342L515.825 482.078Z" fill="#F4F4F4"/>
<path d="M600.929 432.747C600.39 432.747 599.951 432.312 599.951 431.77V402.518C599.951 401.979 600.39 401.541 600.929 401.541C601.471 401.541 601.91 401.979 601.91 402.518V431.77C601.91 432.312 601.471 432.747 600.929 432.747Z" fill="#3C2C51"/>
<path d="M518.001 480.77V470.476C518.001 460.092 523.545 450.499 532.539 445.307L605.603 403.161V400.563L567.089 380.992L494.168 423.171C485.188 428.366 479.66 437.952 479.66 448.324V458.442L515.825 482.079L518.001 480.77Z" fill="#A91D00"/>
<path d="M515.825 482.078L515.79 469.229C515.76 458.815 521.308 449.18 530.33 443.975L605.603 400.563L567.125 378.312L491.801 421.793C482.808 426.985 477.27 436.578 477.27 446.959V459.867L515.825 482.078Z" fill="#E83015"/>
<path d="M416.986 200.011L440.852 186.257C440.852 186.257 441.034 186.142 440.933 185.933C440.835 185.735 440.611 185.858 440.611 185.858L418.393 197.708L416.986 200.011Z" fill="#383838"/>
<path d="M413.03 202.384C413.03 202.384 414.817 198.545 415.794 197.938C416.772 197.33 420.517 195.539 420.9 195.955C421.283 196.37 419.172 197.33 418.594 198.545C418.019 199.761 417.22 200.912 418.084 200.976C418.948 201.04 419.877 199.441 420.322 200.049C420.77 200.657 415.203 204.758 414.596 204.898C413.988 205.038 413.03 202.384 413.03 202.384Z" fill="#F5C8AA"/>
<path d="M410.971 202.942C410.971 202.942 412.251 201.579 412.602 201.418C412.956 201.259 415.739 202.442 415.577 205.513C415.577 205.513 413.69 207.111 413.531 207.272C413.371 207.433 410.971 202.942 410.971 202.942Z" fill="#EE773A"/>
<path d="M393.888 249.813C393.888 249.813 393.219 274.278 392.735 276.781C392.251 279.268 387.769 305.469 387.769 305.469H382.085C382.085 305.469 382.907 296.817 383.582 289.256L383.592 289.233C384.076 283.897 384.482 279.107 384.482 278.317C384.482 276.397 380.734 262.38 380.734 262.38L382.738 251.164L383.137 248.945L393.888 249.813Z" fill="#F5C8AA"/>
<path d="M385.827 277.211C385.356 280.144 383.689 288.696 383.592 289.233C384.076 283.898 384.482 279.107 384.482 278.317C384.482 276.397 380.734 262.38 380.734 262.38L382.738 251.164C388.068 251.318 393.095 252.746 393.095 252.746C393.095 252.746 388.461 257.568 385.313 259.857C381.793 262.415 386.31 274.187 385.827 277.211Z" fill="#E9AA94"/>
<path d="M384.482 253.268C384.482 253.268 381.026 273.227 380.451 276.014C379.873 278.793 371.338 309.116 371.338 309.116L365.193 308.54C365.193 308.54 367.405 295.566 368.996 285.602C369.818 280.459 370.467 276.106 370.568 274.762C370.854 270.824 367.973 253.268 367.973 253.268L384.482 253.268Z" fill="#F5C8AA"/>
<path d="M371.62 275.43C370.974 279.714 369.109 285.256 368.996 285.602C369.817 280.459 370.467 276.106 370.568 274.762C370.853 270.824 367.973 253.268 367.973 253.268H372.234L379.973 258.019C379.973 258.019 373.387 259.432 371.136 259.309C368.895 259.194 372.289 271.024 371.62 275.43Z" fill="#E9AA94"/>
<path d="M392.783 235.076C392.783 235.076 394.56 242.666 398.061 243.289C398.061 243.289 398.642 246.216 395.999 246.264C393.358 246.312 391.153 236.141 391.153 236.141L392.783 235.076Z" fill="#3A3059"/>
<path d="M397.243 247.994C395.193 251.134 392.712 253.345 390.094 254.88L390.078 254.888C385.934 257.313 381.448 258.066 377.811 258.143C377.717 258.15 377.671 258.15 377.671 258.15H377.642C374.176 258.212 371.507 257.69 370.662 257.467C367.973 256.768 367.645 254.934 365.479 254.995C363.796 255.041 362.377 254.135 361.341 253.153C361.263 253.091 361.224 253.053 361.224 253.053C360.11 251.963 359.467 250.835 359.467 250.835C359.467 250.835 361.185 250.259 362.461 248.086C363.744 245.914 365.732 235.074 365.732 235.074L391.484 233.309L397.243 247.994Z" fill="#383838"/>
<path d="M384.099 190.261C384.099 190.261 386.882 186.289 386.544 182.019C386.21 177.748 384.099 177.317 384.099 177.317C384.099 177.317 382.13 173.094 378.483 175.158C374.836 177.221 376.755 180.577 371.286 182.425C365.813 184.274 362.981 188.347 362.312 191.492C361.64 194.637 363.816 201.45 361.448 206.44C359.08 211.43 361.192 216.74 366.437 215.396C371.685 214.053 374.884 220.258 374.884 220.258L384.099 190.261Z" fill="#383838"/>
<path d="M413.528 207.269C413.528 207.269 410.549 210.317 407.087 213.58L407.064 213.595C403.047 217.372 398.396 221.417 396.96 221.348C394.271 221.218 386.018 214.055 385.956 213.027C385.924 212.543 386.064 207.308 386.216 201.972C386.385 196.115 386.57 190.135 386.57 190.135C387.314 190.365 387.86 191.179 388.259 192.177C388.659 193.167 395.745 210.148 398.11 210.662C400.474 211.177 410.971 202.939 410.971 202.939C410.971 202.939 413.144 204.075 413.528 207.269Z" fill="#E73039"/>
<path d="M407.064 213.595C403.047 217.372 398.396 221.418 396.96 221.349C394.271 221.218 386.018 214.056 385.956 213.027C385.924 212.544 386.064 207.308 386.216 201.973C388.941 202.188 391.023 202.379 391.023 202.379C391.023 202.379 392.926 206.725 392.735 208.26C392.543 209.796 389.626 213.419 390.078 215.016C390.533 216.612 396.015 220.259 398.116 219.392C400.153 218.562 406.665 213.887 407.064 213.595Z" fill="#E1122F"/>
<path d="M395.999 235.037C395.908 235.167 389.903 240.679 380.081 240.603C375.466 240.572 370.016 239.298 363.942 235.667C363.942 235.667 368.548 223.046 369.003 215.315C369.11 213.527 366.583 210.057 365.349 205.766C364.618 203.217 364.342 200.376 365.349 197.429C365.349 197.429 366.375 194.289 369.256 192.754C372.133 191.218 376.167 189.936 379.873 189.552C383.582 189.169 386.655 189.744 387.23 190.643C387.808 191.533 391.777 203.117 391.777 206.887C391.777 209.942 389.519 210.986 388.519 212.421C388.282 212.759 388.119 213.128 388.068 213.542C387.944 214.556 389.695 219.269 391.585 224.028C391.692 224.305 391.767 224.481 391.793 224.543L391.799 224.566C393.888 229.809 396.067 234.937 395.999 235.037Z" fill="#EB6061"/>
<path d="M363.942 235.665C363.942 235.665 368.548 223.045 369.003 215.314C369.11 213.526 366.583 210.056 365.349 205.764C367.551 203.316 369.746 201.657 371.653 201.696C371.653 201.696 372.16 205.388 369.493 208.359C366.823 211.33 369.802 212.727 370.185 215.675C370.568 218.623 367.398 230.814 370.467 234.844C373.179 238.406 378.808 240.218 380.081 240.601C375.466 240.571 370.016 239.296 363.942 235.665Z" fill="#E94648"/>
<path d="M382.669 190.373C382.669 190.649 382.63 190.971 382.517 191.302C382.286 191.954 381.757 192.637 380.581 193.006C377.824 193.873 376.32 190.258 376.32 190.258L377.278 186.734L380.643 184.945L382.579 189.582C382.579 189.582 382.676 189.912 382.669 190.373Z" fill="#F5C8AA"/>
<path d="M359.463 241.945C359.463 241.945 363.549 241.673 364.39 240.217C365.228 238.76 366.183 233.269 364.647 233.541C363.111 233.814 362.549 235.04 361.838 235.789C361.126 236.539 360.499 237.288 361.838 237.083C363.176 236.879 363.751 238.718 362.536 239.468C361.318 240.217 359.463 240.719 359.463 241.945Z" fill="#F5C8AA"/>
<path d="M362.15 231.769C362.15 231.769 353.384 215.08 353.13 212.219C352.874 209.358 365.839 195.643 367.333 194.221C368.827 192.799 370.789 194.644 371.494 198.459C372.195 202.273 370.467 205.475 368.486 206.973C366.502 208.472 361.191 211.584 361.062 212.885C360.935 214.186 366.524 231.213 366.437 232.178C366.352 233.142 362.734 232.891 362.15 231.769Z" fill="#E73039"/>
<path d="M367.158 305.805C367.158 305.805 369.512 308.431 371.981 306.806C371.981 306.806 374.355 313.337 376.706 314.201C379.058 315.065 379.204 316.36 375.842 316.888C372.484 317.416 367.732 312.522 365.189 311.754C362.646 310.986 365.709 305.469 365.709 305.469L367.158 305.805Z" fill="#383838"/>
<path d="M384.897 302.784C384.897 302.784 386.804 304.32 388.187 303.047C388.187 303.047 390.383 307.581 391.727 308.444C393.072 309.307 393.598 308.636 393.887 309.116C394.176 309.595 391.487 312.234 389.016 310.939C386.544 309.644 386.096 309.04 382.851 308.492C379.155 307.868 380.616 305.421 382.38 302.303L384.897 302.784Z" fill="#383838"/>
<path d="M361.99 234.154C361.99 234.154 364.326 235.21 366.245 234.324L366.437 232.178L362.149 231.77L361.99 234.154Z" fill="#EE773A"/>
<path d="M377.642 258.151C374.176 258.212 371.507 257.69 370.662 257.467C367.973 256.769 367.645 254.934 365.479 254.996C363.796 255.042 362.377 254.136 361.341 253.153C361.786 253.522 363.504 254.765 365.193 253.652C367.083 252.409 370.523 242.697 370.792 241.945C370.636 242.705 368.535 252.662 369.217 254.903C369.915 257.145 377.109 258.081 377.642 258.151Z" fill="#362C56"/>
<path d="M390.078 254.888C385.933 257.314 381.448 258.067 377.811 258.143C378.668 258.089 383.306 257.713 384.004 256.147C384.774 254.42 384.004 244.586 384.004 244.586C384.004 244.586 385.68 253.315 386.255 254.704C386.807 256.047 389.841 254.973 390.078 254.888Z" fill="#362C56"/>
<path d="M391.585 224.027C390.838 222.215 388.35 216.35 386.801 215.675C384.956 214.884 381.887 212.535 381.792 211.744C381.792 211.744 384.021 214.078 388.519 212.42C388.282 212.758 388.119 213.126 388.067 213.54C387.944 214.554 389.695 219.267 391.585 224.027Z" fill="#E94648"/>
<path d="M382.669 190.372C382.669 190.649 382.63 190.971 382.517 191.301C381.948 191.393 381.065 191.248 380.548 190.487C379.805 189.405 379.704 186.803 379.704 186.803C379.704 186.803 381.809 189.144 382.669 190.372Z" fill="#E9AA94"/>
<path d="M385.664 185.521C385.44 188.492 384.29 191.309 383.968 191.47C383.653 191.632 381.955 190.894 380.734 189.682C379.788 188.73 379.545 185.766 379.483 184.523C379.46 184.17 379.46 183.955 379.46 183.955C379.46 183.955 383.874 178.228 384.511 179.472C384.511 179.472 384.871 180.278 385.196 181.475C385.501 182.604 385.771 184.07 385.664 185.521Z" fill="#F5C8AA"/>
<path d="M385.196 181.475C384.92 182.934 383.92 185.421 380.305 186.496C380.305 186.496 379.883 185.49 379.483 184.523C379.46 184.17 379.46 183.955 379.46 183.955C379.46 183.955 383.874 178.228 384.511 179.472C384.511 179.472 384.871 180.278 385.196 181.475Z" fill="#E9AA94"/>
<path d="M384.576 180.275C384.576 180.275 383.085 185.326 379.707 186.806C378.116 187.504 377.72 189.897 376.248 190.153C374.777 190.409 377.619 182.402 377.619 182.402L382.273 177.988C382.273 177.988 384.098 177.556 384.576 178.131C385.057 178.707 384.576 180.275 384.576 180.275Z" fill="#383838"/>
</g>
<defs>
<clipPath id="clip0_509_799">
<rect width="800" height="500" fill="white"/>
</clipPath>
</defs>
</svg>
